<?xml version="1.0" encoding="UTF-8" standalone="no"?>
<!-- Generator: Adobe Illustrator 26.0.1, SVG Export Plug-In . SVG Version: 6.00 Build 0)  -->

<svg
   version="1.1"
   id="Layer_1"
   x="0px"
   y="0px"
   viewBox="0 0 3000 970"
   style="enable-background:new 0 0 3000 970;"
   xml:space="preserve"
   sodipodi:docname="tcg-hobby-horizontal.svg"
   inkscape:version="1.4.4 (dcaf3e7, 2026-05-05)"
   xmlns:inkscape="http://www.inkscape.org/namespaces/inkscape"
   xmlns:sodipodi="http://sodipodi.sourceforge.net/DTD/sodipodi-0.dtd"
   xmlns="http://www.w3.org/2000/svg"
   xmlns:svg="http://www.w3.org/2000/svg"><defs
   id="defs67" /><sodipodi:namedview
   id="namedview67"
   pagecolor="#ffffff"
   bordercolor="#000000"
   borderopacity="0.25"
   inkscape:showpageshadow="2"
   inkscape:pageopacity="0.0"
   inkscape:pagecheckerboard="0"
   inkscape:deskcolor="#d1d1d1"
   showgrid="false"
   inkscape:zoom="0.40766667"
   inkscape:cx="1500"
   inkscape:cy="484.46443"
   inkscape:window-width="1920"
   inkscape:window-height="1001"
   inkscape:window-x="-9"
   inkscape:window-y="-9"
   inkscape:window-maximized="1"
   inkscape:current-layer="Layer_1" />
<style
   type="text/css"
   id="style1">
	.st0{fill:#FF6A00;}
	.st1{fill:#FFFFFF;}
	.st2{fill:#0D0D0D;}
</style>
<path
   class="st0"
   d="M400.12,707.82c0,0-3.69,28.24-42.1,27.59c0,0,40.2,12.1,42.1,22.38c0,0,13.99-17.7,42.99-21.73  c0,0-8.17-4.24-23.01-4.77c-1.51-0.05-3.02-0.29-4.42-0.88C404.85,725.8,400.12,707.82,400.12,707.82z"
   id="path1" />
<path
   class="st0"
   d="M277.5,685.21l14.12-65.68l-8.59-6.25C269.1,665.98,277.5,685.21,277.5,685.21z"
   id="path2" />
<path
   class="st0"
   d="M507.22,618.95c0,0,9.03,33.18,9.03,45.67c0,0,4.32-14.57,1.14-45.67l3.43-10.8L507.22,618.95z"
   id="path3" />
<path
   class="st0"
   d="M256.22,493.43l24.56-2.11c0,0,20.34-27.64,64.68-51.71l6.32-15.8C289.37,447.88,264.41,479.16,256.22,493.43z"
   id="path4" />
<path
   class="st0"
   d="M460.19,446.4c0,0,33.8,13.05,61.53,43.67l40.83,8.11c0,0-33.45-51.66-119.82-89.26L460.19,446.4z"
   id="path5" />
<ellipse
   transform="matrix(0.3608 -0.9327 0.9327 0.3608 11.8938 782.565)"
   class="st0"
   cx="576.83"
   cy="382.61"
   rx="49.72"
   ry="46.36"
   id="ellipse5" />
<path
   class="st0"
   d="M398.59,309.65c-4.83,7.03-25.95,24.85-25.95,24.85c6.49,9.37,5.6,31.69,5.6,31.69  c5.18-5.4,9.87-8.49,13.93-10.13v-16.32l7.95-9.96l5.02,7.24c1.63,2.36,2.64,5.11,2.92,7.98l1.22,12.4l9.92-20.3l-9.03-16.4  L398.59,309.65z"
   id="path6" />
<path
   class="st0"
   d="M215.01,287.33c0,0,5.34-11.52,28.05-16.88c0,0-10.97-23.13,14.69-41.48c0,0-12.88,4.78-21.85,10.25  c-5.41,0.31-12.88,0-15.67-0.14c-0.7-0.03-1.36,0.31-1.75,0.9l-13.25,19.94c-0.62,0.93-0.43,2.19,0.43,2.89l11.17,9.1  C216.82,271.91,209.19,280.21,215.01,287.33z"
   id="path7" />
<path
   class="st0"
   d="M369.42,222.44l-2.35-2.55c-1.03-1.12-2.47-1.74-3.97-1.73l-6.23,0.07l-7.16-6.09  c-2.63-2.24-6.51-1.95-8.8,0.65c-5.62,6.36-12.99,14.08-17.12,18.37c-1.75,1.81-1.72,4.73,0.06,6.51l9.45,9.45l-1.65,4.45  c-0.45,1.21-0.17,2.58,0.71,3.51l2.48,2.62c1.14,1.21,2.97,1.36,4.29,0.36c3.9-2.97,12.65-8.48,23.74-8.41  c-2.23-4.9,3.17-13.54,7-18.74C371.77,228.36,371.57,224.78,369.42,222.44z"
   id="path8" />
<path
   class="st0"
   d="M458.95,231.15c1.03,4.66,1.9,8.26,1.9,8.26s4.91-6.17,7.57-17.1c0.77-3.17-1.35-6.31-4.51-6.78  c-11.65-1.73-41.24-5.01-86.76-2.6c-1.48,0.08-2.13,1.96-1.01,2.96l1.45,1.3c1.45,1.3,3.32,2.01,5.25,1.99  c10.16-0.1,43.74-0.35,62.45,0.35C451.9,219.78,457.5,224.56,458.95,231.15z"
   id="path9" />
<path
   class="st0"
   d="M555.2,228.39l-12.69,9.76h-6.49c-2.9,0-5.25,2.4-5.25,5.37v8.2l-10.4,14.93l15.44-2.59  c0.93-0.16,1.87,0.09,2.62,0.67l5.13,3.98c6.09,4.73,14.83,2.97,18.77-3.74c1.27-2.17,2.52-4.4,3.6-6.49c1.6-3.1,4.21-5.51,7.4-6.79  c6.65-2.67,15.55-3.78,15.55-3.78l-28.43-13.66L555.2,228.39z"
   id="path10" />
<path
   class="st0"
   d="M707.55,334.06l-5.43-9.06l-0.86-10.65c-0.23-2.88-2.08-5.36-4.73-6.35c-8.79-3.26-28.2-10.91-32.66-16.38  c0,0-3.15,10.93,9.16,30.06l-2.91,11.08c-1.04,3.96,0.16,8.19,3.13,10.95c3.26,3.02,8.24,6.43,14.92,7.64l8.24,14.25  c0,0-0.54-11.51,10.16-22.7C708.82,340.53,709.25,336.89,707.55,334.06z"
   id="path11" />
<path
   class="st0"
   d="M544.82,150.52l3.03,4.87l7.82,1.76V139.8c0-2.55-1.63-4.81-4.01-5.56c-20.29-6.37-112.36-36.52-157.02-72.34  c0,0-66.48,51.91-148.83,69.75c-2.52,0.55-4.32,2.84-4.32,5.48v22.1l8.01-2.08l0.32-2.25c0.58-4.08,3.4-7.45,7.26-8.65  c21.85-6.77,95.5-30.57,142.51-57.8c0,0,84.07,44.9,141.78,59.57C542.81,148.37,544.04,149.26,544.82,150.52z"
   id="path12" />
<path
   class="st0"
   d="M618.31,163.39h41.04c16.34,0,28.43,16.37,23.09,32.17c-0.86,2.52-2.09,4.84-3.86,6.75  c0.02,0.44,0.03,0.91,0.02,1.36l-0.23,14.67L713,237.76l3.36-49.76c1.78-26.34-17.23-49.42-42.92-51.94  c-16.57-1.64-37.3-2.83-61.67-2.6c0,0,0.21,9.33,1.43,18.71C613.76,156.46,615.6,160.34,618.31,163.39z"
   id="path13" />
<path
   class="st0"
   d="M81,237.76l34.63-19.42l-0.23-14.67c-0.01-0.45,0-0.92,0.02-1.36c-1.76-1.91-3-4.22-3.86-6.75  c-5.34-15.8,6.75-32.17,23.09-32.17h41.04c2.71-3.05,4.55-6.93,5.11-11.22c1.22-9.37,1.43-18.71,1.43-18.71  c-24.37-0.24-45.1,0.96-61.67,2.6c-25.69,2.52-44.7,25.6-42.92,51.94L81,237.76z"
   id="path14" />
<path
   class="st0"
   d="M136.49,292.41c0,0-16.49,9.86-39.3,17.67c-1.28,0.44-2.32,1.38-2.88,2.64c-1.85,4.17-6.18,13.97-8.34,19.42  c-0.77,1.94-1.13,4.03-0.98,6.13c0.47,6.54,2.66,13.86,10.19,27.93l1.86-4.8c1.1-2.84,3.1-5.22,5.7-6.72  c4.65-2.7,12.44-7.69,17.71-13.56c2.41-2.68,3.19-6.51,2.15-10l-2.29-7.72c-0.88-2.97-0.16-6.19,1.92-8.45  C127.1,309.62,135.62,299.47,136.49,292.41z"
   id="path15" />
<path
   class="st0"
   d="M83.39,494.81L49.3,432.48c0,0-7.78,15.14-5.26,72.99c2.5,57.46,16.68,113.86,42.67,164.86  c34.11,66.94,70.87,91.68,70.87,91.68l3.72-55.63C75.76,598.26,83.39,494.81,83.39,494.81z"
   id="path16" />
<path
   class="st0"
   d="M408.32,912.12c-2.47,0.81-5.17,0.28-7.14-1.42l-2.59-2.24c-75.05-35.65-105.07-67.66-105.07-67.66  c-18.19,2.73-59.65,1.3-59.65,1.3c66.77,72.61,165.39,111.65,165.39,111.65C514.41,907.16,564.65,840.8,564.65,840.8h-53.91  C503.95,852.95,478.72,888.91,408.32,912.12z"
   id="path17" />
<path
   class="st0"
   d="M710.04,498.19c3.5,115.09-75.11,207.54-75.11,207.54l3.56,55.2C785.28,621.22,743.9,431.96,743.9,431.96  L710.04,498.19z"
   id="path18" />
<path
   class="st0"
   d="M741.52,319.16c3.23-6.93,0.53-15.25-6.1-18.83l-147.41-79.56c-1.07-0.58-2.17-1.12-3.27-1.64  c-2.4-1.13-4.86-2.12-7.38-2.96c-8.67-2.87-24.38-8.32-35.78-12.31c-7.83-2.74-16.43,0.98-19.97,8.63l-21.09,45.61l-53.97,116.73  l8.02,6.63l75.01-165.95c2.3-5.09,8.1-7.44,13.17-5.32c40.36,16.94,148.13,76.73,182.2,95.78c5.91,3.31,8.29,10.74,5.41,16.99  c-34.69,75.24-94.24,188.82-94.24,188.82l2,3.51c8.08-8.46,34.15-47.98,34.96-49.22l0.02-0.03L741.52,319.16z"
   id="path19" />
<path
   class="st0"
   d="M488.14,190.52c-80.43-4.66-136.67-3.82-164.3-2.82c-10.95,0.4-19.65,9.52-19.8,20.72l-2.5,190.16l8.2-3.97  l1.8-186.81c0.06-6.7,5.34-12.13,11.9-12.22c28.12-0.39,101.23-0.92,160.31,2.94L488.14,190.52z"
   id="path20" />
<path
   class="st0"
   d="M199.75,221.88c-0.06,0.03-0.13,0.05-0.19,0.08c-1.8,0.79-3.49,1.73-5.06,2.82  c-10.2,7.07-15.44,20.02-12.46,32.79l45.17,193.95l7.04-9.94c-4.83-21.1-32.75-137.33-44.2-184.96  c-2.77-11.51,3.56-23.27,14.55-27.02l61.95-21.2c-0.45-3.34-0.59-7.06-0.54-10.75l-64.67,23.56  C200.8,221.41,200.28,221.65,199.75,221.88z"
   id="path21" />
<path
   class="st0"
   d="M143.81,258.9l-78.17,42.43c-9.28,5.03-13.48,16.3-9.86,26.39c24.77,69.01,95.51,195.99,95.51,195.99l4.29-7.51  L63.61,329.02c-4.53-9.23-0.9-20.47,8.11-25.12l73.87-38.1L143.81,258.9z"
   id="path22" />
<path
   class="st0"
   d="M49.55,324.42c0.13-5.79,2.04-14.64,2.04-14.64c-5.79,1.56-8.59,2.41-8.59,2.41  C44.15,317.26,49.55,324.42,49.55,324.42z"
   id="path23" />
<path
   class="st0"
   d="M592.92,778.47c0.28,3.34-1.02,6.61-3.49,8.81c-1.34,1.19-2.92,2.47-4.58,3.53c-1.63,1.04-3.51,1.58-5.43,1.58  h-28.57l-29.89,31.62h76.49c14.92,0,26.68-13.02,25.5-28.23l-6.98-90.05c-9.31,12.25-18.45,23.04-26.45,31.92L592.92,778.47z"
   id="path24" />
<path
   class="st0"
   d="M258.8,792.07h-46.94c-12.98-9.56-2.8-18.41-2.8-18.41v-44.25C195.48,710.33,191,696.37,191,696.37  c7.32,10.63,14.37,18.74,20.7,24.91l0.92-15.94c-15.88-24.52-31.1-56.92-31.1-56.92c1.12,7.4,1.82,14.85,2.16,22.31  c0.39,8.63,0.27,17.29-0.39,25.92l-0.55,6.32l-5.88,67.61l-2.02,23.31l0.98-11.25c0.79-9.04,3.06-17.89,6.77-26.14  c1.48-3.3,2.75-5.68,3.33-5.71c1.9-0.1,5.41,1.37,5.09,7.42c-0.32,6.05-6.26,34.87,0,50.13c0,0-8.92-2.91-15.02-10.57  c-0.85-1.07-1.25-2.45-1.14-3.83c-0.06,0.72-0.09,1.44-0.1,2.15c-0.11,14.39,11.18,26.43,25.51,26.65l84.51,1.29  C274.82,814.39,258.8,792.07,258.8,792.07z"
   id="path25" />
<path
   class="st0"
   d="M221.27,729.69V717.7v0c-0.71-0.92-1.43-1.88-2.15-2.86c-2.16-2.95-4.34-6.15-6.5-9.5l-0.92,15.94  C215.13,724.63,218.35,727.4,221.27,729.69z"
   id="path26" />
<path
   class="st0"
   d="M574.19,771.08l-10.98-6.53l-6.94,10.61C562.09,774.71,569.52,773.63,574.19,771.08z"
   id="path27" />
<path
   class="st0"
   d="M588.07,725c3.84-4.26,8.01-8.96,12.26-13.81c8.02-9.17,12.92-20.75,13.89-33.02  c0.45-5.62,0.91-10.56,1.23-13.82c-1.83,2.97-3.72,6-5.63,9.05c-0.48,0.77-0.97,1.54-1.46,2.31c-1.56,2.47-3.14,4.96-4.74,7.45  c-0.45,0.71-0.9,1.41-1.36,2.12c-2.01,3.11-4.05,6.23-6.1,9.33c-0.29,0.44-0.58,0.86-0.87,1.3c-1.71,2.57-3.43,5.12-5.16,7.65  c-0.33,0.48-0.66,0.98-0.99,1.46L588.07,725z"
   id="path28" />
<path
   class="st0"
   d="M588.07,725l1.07-19.97c-0.78,1.13-1.56,2.26-2.34,3.38c-0.2,0.28-0.39,0.57-0.59,0.85  c-1.45,2.07-2.89,4.11-4.34,6.13c-0.39,0.55-0.79,1.09-1.18,1.64c-1.48,2.05-2.96,4.08-4.43,6.06c-3.2,13.03-6.55,21.8-6.69,22.19  C569.89,744.93,577.76,736.48,588.07,725z"
   id="path29" />
<g
   id="g50">
	<polygon
   class="st1"
   points="350.19,520.57 216.06,527.21 318.9,614.07 287.04,747.37 399.42,675.16 511.67,747.37 480.12,613.22    584.17,526.56 448.45,520.18 399.42,395.07  "
   id="polygon29" />
	<path
   class="st1"
   d="M231.91,135.64c0.18-4.73,3.28-8.82,7.7-10.2c125.97-39.39,160.26-67.19,160.26-67.19   c41.85,28.16,139.85,61.31,160.12,68.01c2.25,0.74,3.82,2.81,3.99,5.21l2.01,29.05l30.15,15.35l-4.36-61.21   c-0.52-7.26-5.41-13.42-12.24-15.45c-133.88-39.73-178.9-83-178.9-83c-22.64,37.14-138.48,74.29-179.39,86.44   c-8.54,2.54-14.49,10.44-14.73,19.53l-1.38,53.69l25.69-11.97L231.91,135.64z"
   id="path30" />
	<path
   class="st1"
   d="M659.34,163.39h-41.04c3.16,3.58,7.53,6.03,12.46,6.64c8.89,1.12,18.23,3.12,26.29,5.15   c12.37,3.1,21.13,14.22,21.52,27.12c1.76-1.91,3-4.22,3.86-6.75C687.77,179.76,675.69,163.39,659.34,163.39z"
   id="path31" />
	<path
   class="st1"
   d="M111.57,195.56c0.86,2.52,2.09,4.84,3.86,6.75c0.39-12.91,9.15-24.02,21.52-27.12   c8.07-2.03,17.4-4.03,26.29-5.15c4.92-0.62,9.29-3.06,12.46-6.64h-41.04C118.31,163.39,106.23,179.76,111.57,195.56z"
   id="path32" />
	<path
   class="st1"
   d="M408.32,912.12c70.4-23.21,95.63-59.17,102.41-71.32h-13.24c-25.95,27.26-98.9,67.66-98.9,67.66l2.59,2.24   C403.15,912.4,405.85,912.93,408.32,912.12z"
   id="path33" />
	<path
   class="st1"
   d="M757.07,282.55L542.32,172.31c-11.65-5.99-25.82-0.66-30.9,11.63C487.88,240.71,430.9,366.9,430.9,366.9   l15.65,7.93l53.97-116.73l21.38-54.76c3.06-7.85,12.09-11.28,19.41-7.37l43.42,23.14v0.01c1.1,0.52,2.2,1.06,3.27,1.64   l147.41,79.56c6.64,3.58,9.33,11.9,6.1,18.83l-68.44,146.9l-0.02,0.03l-27.34,58.75c-5.33,11.44-13.5,21.25-23.71,28.44l-0.12,0.09   c1.31,13.46-4.97,52.16-5.15,53.26c0.4-0.55,10.18-14.08,17.72-42.27c1.07-4.03,5.63-5.81,9.07-3.58c1.96,1.27,4.1,3.16,6.14,6   c18.91-21.78,91.27-170.99,122.91-237.14C780.93,312.23,774,291.23,757.07,282.55z"
   id="path34" />
	<path
   class="st1"
   d="M405.13,337.02l-5.02-7.24l-7.95,9.96v16.32c10.69-4.33,17.11,1.35,17.11,1.35l-1.22-12.4   C407.77,342.13,406.77,339.38,405.13,337.02z"
   id="path35" />
	<path
   class="st1"
   d="M496.53,167.98l-183.95-2.89c-14.58-0.23-26.64,11.57-27.06,26.49l-5.5,218.94c0,0,8.42-4.97,14.52-8.49   l4.52-201.15c0.21-9.47,7.75-17.05,17.01-17.1c40.11-0.21,141.18-0.44,172.83,2.25C488.9,186.03,489.28,176.76,496.53,167.98z"
   id="path36" />
	<path
   class="st1"
   d="M156.85,240.49l57.11,229.73l11.72-16.53l-48.5-193.8c-3.28-13.13,2.56-26.87,14.19-33.36l3.13-1.75   c1.57-1.09,3.26-2.04,5.06-2.82l0.23-0.13l-0.04,0.05c0.53-0.23,1.04-0.47,1.59-0.67l64.67-23.56c0.11-10.98,1.82-21.78,1.82-21.78   l-95.59,35.02C160.42,215.24,153.76,228.04,156.85,240.49z"
   id="path37" />
	<path
   class="st1"
   d="M130.23,539.06c2.05,3.71,7.02,12.04,13.9,19.38c14.5,13.08,29.32,43.85,29.32,43.85s-2.54-34.09,0-50.88   c0,0-9.54-5.2-18.7-15.35v7.71c0,2.02-2.37,3.04-3.78,1.63l-8.65-8.62l-1.14-8.3L45.74,333.33l-11.48-20.88   c-1.99-3.62,0.95-7.98,4.97-7.38c2.99,0.45,6.42,0.82,10.01,0.95c1.68,0.06,3.34-0.36,4.8-1.22l87.99-51.5c0,0-2.1-8.91-2.1-19.65   L28.65,292.98c-10.98,5.86-15.49,19.53-10.22,30.99c18.42,40.04,61.78,131.39,108.84,209.95   C128.29,535.62,129.27,537.33,130.23,539.06z"
   id="path38" />
	<path
   class="st1"
   d="M303.06,824.02h19.84c0,0-30.02-14.44-41.34-22.9C281.57,801.11,292.12,818.29,303.06,824.02z"
   id="path39" />
	<path
   class="st1"
   d="M183.68,670.73c-4.14-6.19-10.26-16.03-15.9-31.29c-8.59-23.23-25.19-43.72-25.19-43.72s4.12,32.56,7.23,50.55   c0.88,5.1,2.73,9.97,5.45,14.34c9.82,15.79,20.99,32.67,27.47,42.36l0.55-6.32C183.95,688.01,184.07,679.36,183.68,670.73z"
   id="path40" />
	<path
   class="st1"
   d="M191,808.33c-6.26-15.26-0.32-44.08,0-50.13c0.32-6.05-3.18-7.52-5.09-7.42c-0.58,0.03-1.85,2.41-3.33,5.71   c-3.7,8.25-5.98,17.1-6.77,26.14l-0.98,11.25l0,0.02c0,0,0,0.01,0,0.01c-0.11,1.38,0.29,2.76,1.14,3.83   C182.08,805.43,191,808.33,191,808.33z"
   id="path41" />
	<path
   class="st1"
   d="M595.28,695.91c0.29-0.44,0.58-0.86,0.87-1.3C595.86,695.05,595.57,695.48,595.28,695.91z"
   id="path42" />
	<path
   class="st1"
   d="M576.25,723.09c1.47-1.98,2.95-4.01,4.43-6.06C579.2,719.08,577.72,721.11,576.25,723.09z"
   id="path43" />
	<path
   class="st1"
   d="M602.25,685.28c0.46-0.71,0.91-1.41,1.36-2.12C603.16,683.87,602.71,684.57,602.25,685.28z"
   id="path44" />
	<path
   class="st1"
   d="M581.86,715.39c1.45-2.02,2.89-4.06,4.34-6.13C584.76,711.33,583.31,713.37,581.86,715.39z"
   id="path45" />
	<path
   class="st1"
   d="M608.35,675.71c0.49-0.77,0.97-1.54,1.46-2.31C609.33,674.16,608.84,674.94,608.35,675.71z"
   id="path46" />
	<path
   class="st1"
   d="M590.12,703.56c-1.11,1.62-2.22,3.24-3.33,4.84c0.78-1.12,1.56-2.24,2.34-3.38   C589.47,704.54,589.79,704.04,590.12,703.56z"
   id="path47" />
	<path
   class="st1"
   d="M648.22,608.15c0,0-13.97,25.62-32.78,56.19c-0.32,3.27-0.78,8.2-1.23,13.82   c-0.97,12.27-5.87,23.85-13.89,33.02c-4.25,4.85-8.42,9.55-12.26,13.81c-10.31,11.49-18.18,19.93-18.51,20.28   c0.14-0.39,3.48-9.16,6.69-22.19c-9.19,12.34-18.2,23.16-26.29,30.79c0,0-4.38,9.5-8.77,13.31l-7.82,0.88l-6.26,11.19   c-2.51,4.46-5.88,8.34-9.93,11.39c-18.67,14.05-52.56,33.37-52.56,33.37h41.84c0,0,22.9-19.84,41.22-48.53c0,0,3.74,0.06,8.61-0.32   l6.94-10.61c0,0,11.06-10.01,26.29-26.91c8-8.88,17.14-19.67,26.45-31.92c11.45-15.07,23.14-32.33,33.21-51   C649.17,654.73,652.61,625.65,648.22,608.15z"
   id="path48" />
	<path
   class="st1"
   d="M191,696.37c0,0,4.48,13.96,18.06,33.04c24.61,34.56,79.1,85.91,191.05,101.5c0,0,58-3.64,107.1-43.46   c0,0-39.05,21.34-106.66,33.57c0,0-62.26-2.86-119.5-40.34l-9.79-0.65l-12.08-8.72l-2.67-11.06l-18.57-20.56   c0,0-6.61-2.14-16.67-10.01c-2.92-2.29-6.14-5.06-9.57-8.4C205.37,715.11,198.32,707,191,696.37z"
   id="path49" />
	<path
   class="st1"
   d="M351.78,423.81l6.32-16.05c0,0-86.24,28.12-117.76,87.05l15.89-1.38   C264.41,479.16,289.37,447.88,351.78,423.81z"
   id="path50" />
</g>
<polygon
   class="st0"
   points="1927.56,539.84 1990.37,539.84 1990.37,287.07 1927.56,287.07 1927.56,386.09 1829.86,386.09   1829.86,287.07 1767.05,287.07 1767.05,539.84 1829.86,539.84 1829.86,435.78 1927.56,435.78 "
   id="polygon50" />
<path
   class="st0"
   d="M2264.35,479.53c11.76-19.8,17.63-42.07,17.63-66.79c0-24.72-5.82-46.93-17.45-66.61  c-11.64-19.68-27.55-35.05-47.75-46.09c-20.2-11.04-42.42-16.57-66.66-16.57c-24.24,0-46.46,5.52-66.67,16.57  c-20.2,11.04-36.23,26.41-48.11,46.09c-11.88,19.69-17.82,41.89-17.82,66.61c0,24.73,5.94,46.99,17.82,66.79  c11.87,19.8,27.91,35.23,48.11,46.27c20.2,11.05,42.42,16.57,66.67,16.57c24.24,0,46.4-5.52,66.47-16.57  C2236.68,514.76,2252.59,499.33,2264.35,479.53z M2199.53,466.03c-12.37,13.45-28.83,20.16-49.4,20.16  c-20.82,0-37.41-6.66-49.77-19.99c-12.37-13.32-18.55-31.15-18.55-53.47c0-22.56,6.18-40.45,18.55-53.65  c12.36-13.2,28.95-19.8,49.77-19.8c20.57,0,37.03,6.66,49.4,19.99c12.36,13.32,18.54,31.15,18.54,53.47  C2218.07,434.82,2211.89,452.59,2199.53,466.03z"
   id="path51" />
<path
   class="st0"
   d="M2465.62,410.21c13.22-3.84,23.81-10.68,31.77-20.52c7.95-9.84,11.93-22.2,11.93-37.09  c0-20.16-7.4-36.13-22.22-47.89c-14.82-11.76-35.32-17.65-61.52-17.65h-116.07v252.78h120.11c26.93,0,47.93-6.18,62.98-18.54  c15.06-12.36,22.59-29.11,22.59-50.23c0-14.64-4.54-27.66-13.58-39.07C2492.55,420.6,2480.55,413.34,2465.62,410.21z M2372.33,336.4  h41.13c10.29,0,18.18,2.29,23.7,6.84c5.51,4.56,8.26,11.16,8.26,19.8c0,8.64-2.76,15.18-8.26,19.62c-5.51,4.44-13.41,6.66-23.7,6.66  h-41.13V336.4z M2443.04,483.13c-5.76,4.68-13.91,7.02-24.43,7.02h-46.28v-55.82h45.54c10.52,0,18.79,2.52,24.79,7.56  c6,5.04,9,12,9,20.88C2451.66,471.67,2448.78,478.45,2443.04,483.13z"
   id="path52" />
<path
   class="st0"
   d="M2736.3,432c-9.06-11.4-21.06-18.66-36-21.79c13.22-3.84,23.81-10.68,31.77-20.52  c7.95-9.84,11.93-22.2,11.93-37.09c0-20.16-7.4-36.13-22.22-47.89c-14.82-11.76-35.32-17.65-61.52-17.65h-116.07v252.78h120.11  c26.93,0,47.93-6.18,62.98-18.54c15.06-12.36,22.59-29.11,22.59-50.23C2749.89,456.43,2745.35,443.4,2736.3,432z M2607.02,336.4  h41.13c10.29,0,18.18,2.29,23.7,6.84c5.51,4.56,8.26,11.16,8.26,19.8c0,8.64-2.76,15.18-8.26,19.62c-5.52,4.44-13.41,6.66-23.7,6.66  h-41.13V336.4z M2677.72,483.13c-5.76,4.68-13.91,7.02-24.43,7.02h-46.28v-55.82h45.54c10.52,0,18.79,2.52,24.79,7.56  c6,5.04,9,12,9,20.88C2686.35,471.67,2683.47,478.45,2677.72,483.13z"
   id="path53" />
<polygon
   class="st0"
   points="2847.95,539.84 2910.76,539.84 2910.76,456.31 3000,287.07 2929.49,287.07 2879.9,392.93   2829.96,287.07 2758.7,287.07 2847.95,456.31 "
   id="polygon53" />
<path
   class="st2"
   d="M199.79,221.83l-0.23,0.13c0.06-0.03,0.13-0.05,0.19-0.08L199.79,221.83z"
   id="path54" />
<path
   class="st2"
   d="M541.58,203.87c11.4,3.99,27.11,9.44,35.78,12.31c2.52,0.83,4.98,1.83,7.38,2.96v-0.01l-43.42-23.14  c-7.32-3.91-16.35-0.48-19.41,7.37l-21.38,54.76l21.09-45.61C525.14,204.84,533.74,201.13,541.58,203.87z"
   id="path55" />
<path
   class="st2"
   d="M764.48,268.11l-38.98-20.02c2.11-2.59,3.48-5.84,3.65-9.24l3.4-49.76c2.35-35.34-22.86-65.73-57.54-69.13  c-18.07-1.78-37.36-2.76-57.06-2.76l-6.32,0.08c-1.13,0-2.27,0.16-3.32,0.41l-0.32-4.13c-1.05-13.94-10.62-25.94-23.83-29.83  C456.9,45.95,412.24,4.86,411.84,4.54c-3-2.92-7.05-4.54-11.18-4.54c-0.73,0-1.38,0.08-2.11,0.16c-4.86,0.65-9.24,3.4-11.75,7.62  c-13.05,21.32-79.83,52.52-170.2,79.35c-13.86,4.13-23.83,15.97-25.94,30.23c-0.32-0.08-0.73-0.08-1.05-0.08  c-0.24,0-72.94,3-72.94,3c-15.48,0.65-29.83,7.38-40.28,19.05c-10.7,12-16.05,27.48-14.91,43.6l3.97,58.84  c0.32,4.05,2.03,7.78,4.94,10.54l-49.36,26.34c-18.56,9.97-26.18,32.82-17.34,52.11c8.27,17.83,23.02,49.36,41.5,86.07  c-4.38,1.13-8.19,4.13-10.29,8.27c-2.27,4.38-9.56,23.42-7.05,81.05c2.67,60.38,17.99,119.63,44.42,171.58  c35.66,69.86,74.65,96.61,76.27,97.75c2.76,1.78,5.92,2.76,9.08,2.76c0.81,0,1.62-0.08,2.35-0.16l-0.16,2.76  c-0.08,0.16-0.08,0.24-0.08,0.41c0,0-0.08,0.65-0.16,1.7c-0.24,2.67-0.65,7.54-0.81,9.08c0,0.32-0.08,0.57-0.08,0.57  c-0.08,0.73-0.08,1.54,0,2.27c-0.08,0.41-0.08,0.73-0.08,1.13c-0.24,23.34,18.4,42.63,41.42,42.96l17.99,0.24  c-0.97,4.94,0.41,10.05,3.97,13.86c68.49,74.48,167.2,114.12,171.34,115.82c1.95,0.73,3.97,1.13,6,1.13s4.13-0.41,6.08-1.22  c117.93-47.74,170.04-115.33,172.23-118.17c2.27-3.08,3.4-6.73,3.24-10.37h16.61c11.51,0,22.61-4.86,30.47-13.37  c8.02-8.67,12.08-20.51,11.18-32.34l-1.38-17.43c0.24,0.08,0.57,0.08,0.81,0.08c4.05,0,8.1-1.54,11.1-4.54  c151.72-144.35,111.85-336.03,110.15-344.13c-1.3-5.84-5.67-10.37-11.18-12.08c13.13-26.75,26.34-54.14,38.66-79.83  C799.25,311.47,789.04,280.75,764.48,268.11z M673.44,136.06c25.69,2.52,44.7,25.6,42.92,51.94L713,237.76l-34.63-19.42l0.23-14.67  c0.01-0.45,0-0.92-0.02-1.36c-0.39-12.91-9.15-24.02-21.52-27.12c-8.07-2.03-17.4-4.03-26.29-5.15c-4.92-0.62-9.29-3.06-12.46-6.64  c-2.71-3.05-4.55-6.93-5.11-11.22c-1.22-9.37-1.43-18.71-1.43-18.71C636.14,133.23,656.88,134.42,673.44,136.06z M206.5,122.2  c0.23-9.1,6.19-17,14.73-19.53c40.91-12.15,156.75-49.3,179.39-86.44c0,0,45.02,43.27,178.9,83c6.83,2.03,11.72,8.19,12.24,15.45  l4.36,61.21l-30.15-15.35l-2.01-29.05c-0.17-2.41-1.74-4.47-3.99-5.21c-20.28-6.7-118.27-39.85-160.12-68.01  c0,0-34.28,27.8-160.26,67.19c-4.42,1.38-7.52,5.47-7.7,10.2l-1.09,28.27l-25.69,11.97L206.5,122.2z M573.33,251.68  c-3.19,1.28-5.8,3.69-7.4,6.79c-1.08,2.09-2.33,4.32-3.6,6.49c-3.93,6.71-12.67,8.47-18.77,3.74l-5.13-3.98  c-0.75-0.58-1.7-0.82-2.62-0.67l-15.44,2.59l10.4-14.93v-8.2c0-2.96,2.35-5.37,5.25-5.37h6.49l12.69-9.76l5.25,5.86l28.43,13.66  C588.88,247.9,579.98,249.01,573.33,251.68z M600.61,339.01c22.27,12.71,29.67,42.54,16.54,66.61  c-13.14,24.08-41.84,33.29-64.1,20.58c-22.27-12.71-29.67-42.54-16.54-66.61S578.35,326.3,600.61,339.01z M562.55,498.19  l-40.83-8.11c-27.73-30.63-61.53-43.67-61.53-43.67l-17.46-37.48C529.1,446.53,562.55,498.19,562.55,498.19z M448.45,520.18  l135.72,6.38l-104.05,86.66l31.55,134.16l-112.25-72.22l-112.38,72.22l31.86-133.31l-102.84-86.86l134.13-6.64l49.23-125.5  L448.45,520.18z M516.25,664.62c0-12.49-9.03-45.67-9.03-45.67l13.61-10.8l-3.43,10.8C520.57,650.04,516.25,664.62,516.25,664.62z   M443.11,736.05c-29,4.03-42.99,21.73-42.99,21.73c-1.91-10.28-42.1-22.38-42.1-22.38c38.41,0.65,42.1-27.59,42.1-27.59  s4.73,17.98,15.56,22.58c1.4,0.59,2.91,0.83,4.42,0.88C434.94,731.82,443.11,736.05,443.11,736.05z M277.5,685.21  c0,0-8.4-19.23,5.53-71.92l8.59,6.25L277.5,685.21z M205.66,262.81c-0.86-0.7-1.05-1.96-0.43-2.89l13.25-19.94  c0.39-0.59,1.05-0.93,1.75-0.9c2.8,0.14,10.27,0.45,15.67,0.14c8.97-5.47,21.85-10.25,21.85-10.25  c-25.66,18.35-14.69,41.48-14.69,41.48c-22.71,5.37-28.05,16.88-28.05,16.88c-5.82-7.12,1.81-15.42,1.81-15.42L205.66,262.81z   M358.1,407.76l-6.32,16.05l-6.32,15.8c-44.33,24.07-64.68,51.71-64.68,51.71l-24.56,2.11l-15.89,1.38  C271.86,435.88,358.1,407.76,358.1,407.76z M362.88,249.66c-11.09-0.07-19.84,5.44-23.74,8.41c-1.32,1-3.15,0.85-4.29-0.36  l-2.48-2.62c-0.88-0.93-1.16-2.3-0.71-3.51l1.65-4.45l-9.45-9.45c-1.78-1.78-1.81-4.69-0.06-6.51c4.13-4.29,11.5-12.02,17.12-18.37  c2.29-2.59,6.17-2.88,8.8-0.65l7.16,6.09l6.23-0.07c1.5-0.02,2.94,0.61,3.97,1.73l2.35,2.55c2.15,2.34,2.34,5.91,0.45,8.48  C366.05,236.12,360.65,244.77,362.88,249.66z M409.28,357.41c0,0-6.41-5.68-17.11-1.35c-4.06,1.64-8.75,4.73-13.93,10.13  c0,0,0.89-22.31-5.6-31.69c0,0,21.12-17.82,25.95-24.85l11.57,11.05l9.03,16.4L409.28,357.41z M382.85,219.18  c-1.93,0.02-3.8-0.69-5.25-1.99l-1.45-1.3c-1.12-1-0.48-2.88,1.01-2.96c45.53-2.41,75.11,0.87,86.76,2.6  c3.16,0.47,5.28,3.61,4.51,6.78c-2.66,10.93-7.57,17.1-7.57,17.1s-0.87-3.6-1.9-8.26c-1.46-6.59-7.06-11.37-13.66-11.62  C426.59,218.83,393.01,219.08,382.85,219.18z M323.44,195.59c-6.55,0.09-11.83,5.52-11.9,12.22l-1.8,186.81l-8.2,3.97l2.5-190.16  c0.15-11.2,8.85-20.33,19.8-20.72c27.63-1,83.87-1.84,164.3,2.82l-4.39,8C424.68,194.67,351.57,195.2,323.44,195.59z M316.07,183.78  c-9.26,0.05-16.8,7.63-17.01,17.1l-4.52,201.15c-6.11,3.51-14.52,8.49-14.52,8.49l5.5-218.94c0.42-14.91,12.47-26.72,27.06-26.49  l183.95,2.89c-7.25,8.78-7.63,18.05-7.63,18.05C457.25,183.34,356.18,183.57,316.07,183.78z M399.61,88.44  c-47.02,27.23-120.66,51.04-142.51,57.8c-3.86,1.2-6.69,4.56-7.26,8.65l-0.32,2.25l-8.01,2.08v-22.1c0-2.64,1.8-4.93,4.32-5.48  c82.35-17.84,148.83-69.75,148.83-69.75c44.66,35.82,136.73,65.97,157.02,72.34c2.39,0.75,4.01,3,4.01,5.56v17.35l-7.82-1.76  l-3.03-4.87c-0.79-1.26-2.02-2.16-3.44-2.52C483.67,133.34,399.61,88.44,399.61,88.44z M267.83,175.88c0,0-1.71,10.8-1.82,21.78  c-0.05,3.7,0.09,7.42,0.54,10.75l-61.95,21.2c-10.99,3.75-17.32,15.51-14.55,27.02c11.45,47.63,39.36,163.86,44.2,184.96l-7.04,9.94  l-45.17-193.95c-2.98-12.78,2.27-25.72,12.46-32.79l-3.13,1.75c-11.63,6.49-17.47,20.22-14.19,33.36l48.5,193.8l-11.72,16.53  l-57.11-229.73c-3.09-12.44,3.56-25.25,15.39-29.59L267.83,175.88z M120.56,136.06c16.57-1.64,37.3-2.83,61.67-2.6  c0,0-0.21,9.33-1.43,18.71c-0.55,4.29-2.4,8.17-5.11,11.22c-3.16,3.58-7.53,6.03-12.46,6.64c-8.89,1.12-18.23,3.12-26.29,5.15  c-12.37,3.1-21.13,14.22-21.52,27.12c-0.02,0.44-0.03,0.91-0.02,1.36l0.23,14.67L81,237.76L77.64,188  C75.86,161.66,94.87,138.59,120.56,136.06z M120.31,323.38l2.29,7.72c1.04,3.49,0.26,7.31-2.15,10  c-5.27,5.87-13.05,10.86-17.71,13.56c-2.6,1.51-4.6,3.88-5.7,6.72l-1.86,4.8c-7.53-14.07-9.72-21.38-10.19-27.93  c-0.15-2.09,0.2-4.18,0.98-6.13c2.16-5.45,6.49-15.25,8.34-19.42c0.56-1.25,1.6-2.2,2.88-2.64c22.82-7.81,39.3-17.67,39.3-17.67  c-0.88,7.06-9.39,17.22-14.27,22.52C120.15,317.19,119.43,320.41,120.31,323.38z M71.72,303.9c-9.01,4.65-12.64,15.89-8.11,25.12  l91.96,187.17l-4.29,7.51c0,0-70.74-126.98-95.51-195.99c-3.62-10.08,0.58-21.35,9.86-26.39l78.17-42.43l1.78,6.9L71.72,303.9z   M18.43,323.97c-5.27-11.46-0.76-25.14,10.22-30.99l111.28-59.33c0,10.74,2.1,19.65,2.1,19.65l-87.99,51.5  c-1.46,0.85-3.12,1.28-4.8,1.22c-3.59-0.13-7.03-0.51-10.01-0.95c-4.01-0.6-6.96,3.76-4.97,7.38l11.48,20.88l95.43,195.15l1.14,8.3  l8.65,8.62c1.41,1.41,3.78,0.38,3.78-1.63v-7.71c9.16,10.15,18.7,15.35,18.7,15.35c-2.54,16.79,0,50.88,0,50.88  s-14.82-30.77-29.32-43.85c-6.88-7.34-11.85-15.67-13.9-19.38c-0.96-1.73-1.94-3.44-2.95-5.13  C80.21,455.37,36.85,364.01,18.43,323.97z M51.59,309.78c0,0-1.91,8.85-2.04,14.64c0,0-5.41-7.16-6.55-12.23  C43,312.18,45.8,311.34,51.59,309.78z M157.58,762.01c0,0-36.76-24.74-70.87-91.68c-25.99-51.01-40.17-107.4-42.67-164.86  c-2.52-57.85,5.26-72.99,5.26-72.99l34.09,62.33c0,0-7.63,103.45,77.91,211.58L157.58,762.01z M200.24,822.72  c-14.33-0.22-25.62-12.26-25.51-26.65c0.01-0.71,0.04-1.43,0.1-2.15c0,0,0-0.01,0-0.01l0-0.02l2.02-23.31l5.88-67.61  c-6.48-9.68-17.64-26.56-27.47-42.36c-2.72-4.37-4.57-9.24-5.45-14.34c-3.11-17.99-7.23-50.55-7.23-50.55s16.6,20.49,25.19,43.72  c5.64,15.25,11.76,25.09,15.9,31.29c-0.34-7.46-1.04-14.91-2.16-22.31c0,0,15.22,32.41,31.1,56.92c2.17,3.35,4.35,6.55,6.5,9.5  c0.72,0.98,1.43,1.94,2.15,2.86v0v11.98c10.06,7.87,16.67,10.01,16.67,10.01l18.57,20.56l2.67,11.06l12.08,8.72l9.79,0.65  c57.24,37.47,119.5,40.34,119.5,40.34c67.61-12.23,106.66-33.57,106.66-33.57c-49.1,39.82-107.1,43.46-107.1,43.46  c-111.96-15.59-166.45-66.95-191.05-101.5v44.25c0,0-10.18,8.85,2.8,18.41h46.94c0,0,16.02,22.32,25.95,31.94L200.24,822.72z   M322.91,824.02h-19.84c-10.94-5.73-21.5-22.9-21.5-22.9C292.89,809.57,322.91,824.02,322.91,824.02z M399.26,953.75  c0,0-98.62-39.03-165.39-111.65c0,0,41.47,1.43,59.65-1.3c0,0,30.02,32.01,105.07,67.66c0,0,72.95-40.4,98.9-67.66h13.24h53.91  C564.65,840.8,514.41,907.16,399.26,953.75z M615.96,705.73l6.98,90.05c1.18,15.22-10.57,28.23-25.5,28.23h-76.49l29.89-31.62h28.57  c1.92,0,3.8-0.54,5.43-1.58c1.66-1.06,3.24-2.34,4.58-3.53c2.47-2.2,3.77-5.47,3.49-8.81l-3.41-40.82  c-15.23,16.9-26.29,26.91-26.29,26.91l10.98,6.53c-4.67,2.54-12.1,3.63-17.91,4.08c-4.87,0.38-8.61,0.32-8.61,0.32  c-18.32,28.69-41.22,48.53-41.22,48.53h-41.84c0,0,33.89-19.32,52.56-33.37c4.05-3.05,7.42-6.93,9.93-11.39l6.26-11.19l7.82-0.88  c4.39-3.81,8.77-13.31,8.77-13.31c8.1-7.63,17.1-18.45,26.29-30.79c1.47-1.98,2.95-4.01,4.43-6.06c0.39-0.55,0.79-1.09,1.18-1.64  c1.45-2.02,2.89-4.06,4.34-6.13c0.2-0.28,0.39-0.57,0.59-0.85c1.11-1.6,2.22-3.22,3.33-4.84c1.73-2.53,3.45-5.08,5.16-7.65  c0.29-0.43,0.58-0.86,0.87-1.3c2.06-3.1,4.09-6.22,6.1-9.33c0.46-0.71,0.91-1.41,1.36-2.12c1.6-2.49,3.18-4.98,4.74-7.45  c0.49-0.77,0.98-1.54,1.46-2.31c1.91-3.05,3.8-6.08,5.63-9.05c18.81-30.57,32.78-56.19,32.78-56.19c4.39,17.5,0.96,46.58,0.96,46.58  C639.1,673.4,627.42,690.66,615.96,705.73z M638.49,760.94l-3.56-55.2c0,0,78.61-92.45,75.11-207.54l33.87-66.23  C743.9,431.96,785.28,621.22,638.49,760.94z M772.6,329.63c-31.64,66.14-104,215.36-122.91,237.14c-2.04-2.83-4.18-4.73-6.14-6  c-3.44-2.23-8.01-0.44-9.07,3.58c-7.54,28.18-17.32,41.72-17.72,42.27c0.17-1.1,6.45-39.79,5.15-53.26l0.12-0.09  c10.21-7.19,18.39-17,23.71-28.44l27.34-58.75c-0.82,1.24-26.89,40.76-34.96,49.22l-2-3.51c0,0,59.55-113.58,94.24-188.82  c2.88-6.24,0.5-13.68-5.41-16.99c-34.07-19.05-141.84-78.85-182.2-95.78c-5.08-2.12-10.88,0.23-13.17,5.32l-75.01,165.95l-8.02-6.63  l-15.65-7.93c0,0,56.99-126.19,80.52-182.96c5.09-12.29,19.25-17.62,30.9-11.63l214.75,110.23  C774,291.23,780.93,312.23,772.6,329.63z M696.4,365.6l-8.24-14.25c-6.68-1.21-11.66-4.62-14.92-7.64  c-2.97-2.76-4.17-6.99-3.13-10.95l2.91-11.08c-12.31-19.13-9.16-30.06-9.16-30.06c4.47,5.47,23.88,13.12,32.66,16.38  c2.66,0.99,4.5,3.47,4.73,6.35l0.86,10.65l5.43,9.06c1.7,2.83,1.27,6.47-1,8.84C695.86,354.09,696.4,365.6,696.4,365.6z"
   id="path56" />
<polygon
   class="st2"
   points="1101.2,284.64 879.07,284.64 879.07,343.84 950.81,343.84 950.81,539.84 1025.64,539.84   1025.64,343.84 1101.2,343.84 "
   id="polygon56" />
<path
   class="st2"
   d="M1359.65,480.21c0.85-7.62,1.28-17.52,1.28-29.7v-7.4h-77.02v7.41c0,9.77-1.59,16.93-4.75,21.48  c-3.17,4.56-7.79,7.47-13.87,8.73c-6.09,1.26-15.15,1.89-27.2,1.89c-10.71,0-19.26-0.93-25.64-2.8c-6.39-1.86-11.08-4.85-14.06-8.97  c-2.99-4.12-4.9-9.25-5.75-15.39c-0.85-6.15-1.27-14.66-1.27-25.52v-39.68c0-9.55,0.48-17.36,1.46-23.46  c0.97-6.09,3.01-11,6.11-14.74c3.1-3.73,7.63-6.39,13.59-7.99c5.96-1.59,14.49-2.39,25.56-2.39c15.09,0,26.12,1.45,33.12,4.36  c7,2.91,11.11,9.63,12.32,20.17v9.88h77.03v-9.85c-0.49-24.74-4.75-43.08-12.78-55.01c-8.03-11.93-19.77-19.71-35.22-23.32  c-15.46-3.61-37.54-5.42-66.25-5.42c-30.54,0-55.12,2.36-73.74,7.07c-18.62,4.71-32.97,14.09-43.07,28.12  c-10.1,14.03-15.15,34.53-15.15,61.5v66.1c0,22.36,3.17,40.18,9.5,53.44c6.32,13.26,15.18,22.94,26.55,29.02  c11.38,6.08,24.3,9.95,38.79,11.59c14.48,1.64,33.52,2.47,57.13,2.47c14.23,0,25.95-0.3,35.13-0.9c9.19-0.61,18.5-2.25,27.93-4.94  c9.43-2.69,18.04-6.88,25.83-12.59c7.91-6.14,13.74-12.97,17.52-20.48C1356.49,495.4,1358.8,487.83,1359.65,480.21z"
   id="path57" />
<path
   class="st2"
   d="M1465.88,359.79c1.95-7.13,6.81-12.47,14.61-16.03c7.78-3.56,20.44-5.34,37.96-5.34  c10.09,0,18.28,0.41,24.55,1.24c6.27,0.82,11.65,3.12,16.16,6.91c4.49,3.78,6.99,9.62,7.48,17.51h75.93  c0-19.51-2.92-34.92-8.76-46.21c-5.85-11.29-14.04-19.43-24.57-24.42c-10.53-4.98-22.46-8.05-35.8-9.21  c-13.33-1.15-31.69-1.72-55.07-1.72c-22.41,0-41.55,1.18-57.44,3.54c-15.89,2.36-29.46,6.93-40.73,13.73  c-11.27,6.8-19.91,16.69-25.94,29.68c-6.03,12.99-9.04,29.68-9.04,50.07v66.1c0,20.5,2.71,37.03,8.13,49.58  c5.41,12.55,13.6,22.19,24.56,28.94c10.95,6.74,24.39,11.37,40.27,13.89c15.9,2.52,35.96,3.78,60.18,3.78  c26.3,0,47.22-1.32,62.75-3.95c15.52-2.63,27.82-7.51,36.89-14.63c9.07-7.13,15.43-17.16,19.08-30.09  c3.66-12.94,5.48-30.59,5.48-52.95v-44.56h-127.58v47.19h51.65c0,11.95-1.37,20.96-4.11,27.05c-2.74,6.08-7.45,10.28-14.14,12.58  c-6.7,2.3-16.68,3.45-29.94,3.45c-14.36,0-25.41-1.07-33.13-3.2c-7.72-2.14-13.51-6.75-17.34-13.81  c-3.84-7.07-5.75-18.01-5.75-32.81v-41.44C1462.72,378.53,1463.94,366.91,1465.88,359.79z"
   id="path58" />
<path
   class="st2"
   d="M953.44,689.43c4.08-2.59,8.74-3.89,13.98-3.89c4.89,0,9.21,1.14,12.94,3.41c3.74,2.27,6.64,5.68,8.69,10.23  h20.74c-3.01-9.64-8.29-17.19-15.84-22.65c-7.56-5.46-16.36-8.18-26.41-8.18c-8.59,0-16.34,2.07-23.26,6.21  c-6.91,4.14-12.36,9.91-16.36,17.32c-3.99,7.42-5.99,15.81-5.99,25.18c0,9.37,2,17.73,5.99,25.1c4,7.37,9.44,13.12,16.36,17.26  c6.91,4.14,14.66,6.21,23.26,6.21c10.14,0,18.96-2.7,26.48-8.12c7.51-5.41,12.77-12.98,15.78-22.72h-20.74  c-2.06,4.55-4.96,7.98-8.69,10.3c-3.74,2.32-8.05,3.48-12.94,3.48c-5.25,0-9.9-1.29-13.98-3.89c-4.08-2.59-7.26-6.27-9.53-11.05  c-2.28-4.77-3.42-10.3-3.42-16.57c0-6.37,1.14-11.92,3.42-16.65C946.18,695.68,949.36,692.02,953.44,689.43z"
   id="path59" />
<path
   class="st2"
   d="M1105.71,674.49c-7.01-4.18-14.76-6.28-23.26-6.28c-8.42,0-16.15,2.1-23.19,6.28  c-7.04,4.18-12.62,9.98-16.75,17.39c-4.12,7.42-6.18,15.76-6.18,25.04c0,9.37,2.06,17.76,6.18,25.17  c4.12,7.42,9.71,13.21,16.75,17.4c7.04,4.19,14.77,6.28,23.19,6.28c8.42,0,16.15-2.09,23.19-6.28c7.04-4.18,12.61-9.98,16.69-17.4  c4.07-7.41,6.11-15.8,6.11-25.17c0-9.28-2.04-17.62-6.11-25.04C1118.25,684.47,1112.71,678.67,1105.71,674.49z M1106.42,733.7  c-2.32,4.82-5.54,8.53-9.66,11.12c-4.12,2.59-8.89,3.89-14.3,3.89s-10.2-1.3-14.36-3.89c-4.17-2.59-7.41-6.29-9.73-11.12  c-2.32-4.82-3.47-10.41-3.47-16.78c0-6.37,1.16-11.94,3.47-16.71c2.32-4.77,5.57-8.43,9.73-10.98c4.17-2.54,8.95-3.82,14.36-3.82  s10.18,1.28,14.3,3.82c4.12,2.55,7.34,6.21,9.66,10.98c2.32,4.78,3.47,10.35,3.47,16.71  C1109.89,723.29,1108.74,728.88,1106.42,733.7z"
   id="path60" />
<polygon
   class="st2"
   points="1177.92,669.58 1159.88,669.58 1159.88,764.81 1222.58,764.81 1222.58,749.66 1177.92,749.66 "
   id="polygon60" />
<polygon
   class="st2"
   points="1270.55,669.58 1252.52,669.58 1252.52,764.81 1311.47,764.81 1311.47,749.66 1270.55,749.66 "
   id="polygon61" />
<polygon
   class="st2"
   points="1343.78,764.81 1403.14,764.81 1403.14,749.25 1361.23,749.25 1361.23,724.02 1399.27,724.02   1399.27,708.87 1361.23,708.87 1361.23,684.99 1403.14,684.99 1403.14,669.44 1343.78,669.44 "
   id="polygon62" />
<path
   class="st2"
   d="M1463.99,689.43c4.08-2.59,8.74-3.89,13.98-3.89c4.89,0,9.21,1.14,12.94,3.41c3.74,2.27,6.64,5.68,8.69,10.23  h20.74c-3.01-9.64-8.29-17.19-15.84-22.65c-7.56-5.46-16.36-8.18-26.41-8.18c-8.59,0-16.34,2.07-23.26,6.21  c-6.91,4.14-12.36,9.91-16.36,17.32c-3.99,7.42-5.99,15.81-5.99,25.18c0,9.37,2,17.73,5.99,25.1c4,7.37,9.44,13.12,16.36,17.26  c6.91,4.14,14.66,6.21,23.26,6.21c10.14,0,18.96-2.7,26.48-8.12c7.51-5.41,12.77-12.98,15.78-22.72h-20.74  c-2.06,4.55-4.96,7.98-8.69,10.3c-3.74,2.32-8.05,3.48-12.94,3.48c-5.25,0-9.9-1.29-13.98-3.89c-4.08-2.59-7.26-6.27-9.53-11.05  c-2.28-4.77-3.42-10.3-3.42-16.57c0-6.37,1.14-11.92,3.42-16.65C1456.73,695.68,1459.91,692.02,1463.99,689.43z"
   id="path62" />
<polygon
   class="st2"
   points="1543.93,684.99 1573.05,684.99 1573.05,764.81 1591.08,764.81 1591.08,684.99 1617.28,684.99   1617.28,669.58 1543.93,669.58 "
   id="polygon63" />
<path
   class="st2"
   d="M1914.49,715.97c4.78-1.55,8.61-4.18,11.49-7.91c2.88-3.73,4.32-8.37,4.32-13.92c0-4.73-1.17-8.96-3.52-12.69  c-2.35-3.73-5.8-6.64-10.36-8.73c-4.56-2.09-9.98-3.14-16.27-3.14h-38.25v95.23h39.97c6.29,0,11.74-1.09,16.34-3.28  c4.6-2.18,8.12-5.2,10.56-9.07c2.43-3.87,3.65-8.34,3.65-13.44c0-5.64-1.69-10.64-5.05-15.01  C1924,719.65,1919.71,716.97,1914.49,715.97z M1880.49,684.99h17c4.43,0,7.83,1.05,10.22,3.14c2.39,2.09,3.59,5.05,3.59,8.87  c0,3.82-1.2,6.75-3.59,8.8c-2.39,2.04-5.79,3.07-10.22,3.07h-17V684.99z M1909.78,745.98c-2.53,2.18-6.05,3.27-10.57,3.27h-18.72  v-25.65h18.32c4.52,0,8.1,1.16,10.76,3.48c2.66,2.32,3.98,5.52,3.98,9.62C1913.55,740.71,1912.3,743.8,1909.78,745.98z"
   id="path63" />
<path
   class="st2"
   d="M2019.14,728.52c0,6.46-1.64,11.39-4.91,14.8c-3.28,3.41-7.93,5.11-13.95,5.11c-5.94,0-10.54-1.7-13.81-5.11  c-3.28-3.41-4.92-8.34-4.92-14.8v-58.94h-18.59v58.8c0,8.1,1.64,14.94,4.92,20.53c3.27,5.59,7.72,9.8,13.35,12.62  c5.62,2.82,11.88,4.23,18.79,4.23c7,0,13.35-1.41,19.07-4.23c5.71-2.82,10.26-7.02,13.68-12.62c3.41-5.59,5.11-12.43,5.11-20.53  v-58.8h-18.73V728.52z"
   id="path64" />
<rect
   x="2074.39"
   y="669.58"
   class="st2"
   width="18.59"
   height="95.23"
   id="rect64" />
<polygon
   class="st2"
   points="2148.5,669.58 2129.91,669.58 2129.91,764.81 2190.74,764.81 2190.74,749.66 2148.5,749.66 "
   id="polygon64" />
<path
   class="st2"
   d="M2278.19,675.44c-7.4-3.91-15.95-5.86-25.69-5.86h-32.41v95.23h32.41c9.74,0,18.3-1.96,25.69-5.86  c7.4-3.91,13.1-9.44,17.13-16.58c4.03-7.14,6.05-15.49,6.05-25.04c0-9.55-2.02-17.94-6.05-25.17  C2291.29,684.93,2285.58,679.36,2278.19,675.44z M2274.4,740.39c-5.31,5.46-12.83,8.18-22.57,8.18h-13.15v-62.89h13.15  c9.74,0,17.26,2.8,22.57,8.39s7.97,13.35,7.97,23.26C2282.37,727.24,2279.71,734.93,2274.4,740.39z"
   id="path65" />
<path
   class="st2"
   d="M2600.15,673.4c-5.05-2.55-11.16-3.82-18.33-3.82h-34.13v95.23h18.59v-36.56h15.53  c7.61,0,13.92-1.37,18.93-4.09c5-2.73,8.68-6.32,11.02-10.78c2.34-4.46,3.52-9.23,3.52-14.33c0-5.64-1.26-10.68-3.78-15.14  C2608.98,679.45,2605.19,675.95,2600.15,673.4z M2592.44,709.21c-2.48,2.41-6.28,3.61-11.42,3.61h-14.74v-27.69h14.74  c10.09,0,15.14,4.64,15.14,13.91C2596.16,703.41,2594.92,706.8,2592.44,709.21z"
   id="path66" />
<polygon
   class="st2"
   points="2662.97,669.58 2644.38,669.58 2644.38,764.81 2707.34,764.81 2707.34,749.66 2662.97,749.66 "
   id="polygon66" />
<path
   class="st2"
   d="M2767.31,669.44l-33.34,95.37h19.53l6.1-18.15h36.93l6.11,18.15h19.66l-33.33-95.37H2767.31z M2764.65,731.38  l13.41-39.84l13.42,39.84H2764.65z"
   id="path67" />
<polygon
   class="st2"
   points="2876.69,713.1 2856.77,669.58 2835.79,669.58 2867.26,731.65 2867.26,764.81 2885.86,764.81   2885.86,731.65 2917.2,669.58 2896.48,669.58 "
   id="polygon67" />
<ellipse
   transform="matrix(0.9571 -0.2898 0.2898 0.9571 -103.8449 733.0583)"
   class="st0"
   cx="2423.47"
   cy="717.19"
   rx="24.6"
   ry="24.6"
   id="ellipse67" />
<circle
   class="st0"
   cx="1735.22"
   cy="717.19"
   r="24.6"
   id="circle67" />
</svg>
