<?xml version="1.0" encoding="UTF-8" standalone="no"?>
<!-- Generator: Adobe Illustrator 26.0.1, SVG Export Plug-In . SVG Version: 6.00 Build 0)  -->

<svg
   version="1.1"
   id="Layer_1"
   x="0px"
   y="0px"
   viewBox="0 0 1669.3506 2043.8199"
   xml:space="preserve"
   sodipodi:docname="tcg-hobby-icon.svg"
   width="1669.3506"
   height="2043.8199"
   inkscape:export-filename="tcg-hobby-icon"
   inkscape:export-xdpi="96.196342"
   inkscape:export-ydpi="96.196342"
   inkscape:version="1.4.4 (dcaf3e7, 2026-05-05)"
   xmlns:inkscape="http://www.inkscape.org/namespaces/inkscape"
   xmlns:sodipodi="http://sodipodi.sourceforge.net/DTD/sodipodi-0.dtd"
   xmlns="http://www.w3.org/2000/svg"
   xmlns:svg="http://www.w3.org/2000/svg"><defs
   id="defs53" /><sodipodi:namedview
   id="namedview53"
   pagecolor="#ffffff"
   bordercolor="#000000"
   borderopacity="0.25"
   inkscape:showpageshadow="2"
   inkscape:pageopacity="0.0"
   inkscape:pagecheckerboard="0"
   inkscape:deskcolor="#d1d1d1"
   showgrid="false"
   inkscape:zoom="0.38310988"
   inkscape:cx="833.96439"
   inkscape:cy="813.08265"
   inkscape:window-width="1920"
   inkscape:window-height="1001"
   inkscape:window-x="-9"
   inkscape:window-y="-9"
   inkscape:window-maximized="1"
   inkscape:current-layer="Layer_1" />
<style
   type="text/css"
   id="style1">
	.st0{fill:#FF6A00;}
	.st1{fill:#FFFFFF;}
	.st2{fill:#0D0D0D;}
</style>
<path
   class="st0"
   d="m 843.0353,1491.39 c 0,0 -7.77,59.49 -88.71,58.12 0,0 84.69,25.5 88.71,47.16 0,0 29.48,-37.29 90.59,-45.79 0,0 -17.2,-8.93 -48.49,-10.05 -3.18,-0.11 -6.37,-0.61 -9.31,-1.86 -22.81,-9.7 -32.79,-47.58 -32.79,-47.58 z"
   id="path1" />
<path
   class="st0"
   d="m 584.6753,1443.75 29.75,-138.39 -18.09,-13.16 c -29.35,111.04 -11.66,151.55 -11.66,151.55 z"
   id="path2" />
<path
   class="st0"
   d="m 1068.7053,1304.13 c 0,0 19.03,69.91 19.03,96.23 0,0 9.11,-30.71 2.41,-96.23 l 7.24,-22.76 z"
   id="path3" />
<path
   class="st0"
   d="m 539.8453,1039.66 51.74,-4.44 c 0,0 42.86,-58.23 136.28,-108.95 l 13.32,-33.3 c -131.49,50.72 -184.09,116.64 -201.34,146.69 z"
   id="path4" />
<path
   class="st0"
   d="m 969.6053,940.58 c 0,0 71.22,27.49 129.65,92.02 l 86.03,17.1 c 0,0 -70.49,-108.85 -252.47,-188.08 z"
   id="path5" />
<ellipse
   transform="rotate(-68.851839)"
   class="st0"
   cx="-313.34055"
   cy="1424.4469"
   rx="104.77554"
   ry="97.685173"
   id="ellipse5"
   style="stroke-width:1.00005" />
<path
   class="st0"
   d="m 839.8253,652.44 c -10.18,14.8 -54.68,52.35 -54.68,52.35 13.66,19.75 11.8,66.76 11.8,66.76 10.91,-11.37 20.79,-17.88 29.34,-21.34 v -34.38 l 16.74,-20.99 10.58,15.26 c 3.44,4.97 5.57,10.76 6.16,16.82 l 2.57,26.14 20.9,-42.78 -19.03,-34.55 z"
   id="path6" />
<path
   class="st0"
   d="m 453.0153,605.41 c 0,0 11.26,-24.26 59.1,-35.57 0,0 -23.12,-48.73 30.96,-87.39 0,0 -27.14,10.08 -46.03,21.59 -11.39,0.66 -27.13,0 -33.03,-0.29 -1.47,-0.07 -2.86,0.64 -3.69,1.89 l -27.92,42.02 c -1.3,1.96 -0.91,4.61 0.9,6.08 l 23.53,19.18 c 0,0 -16.08,17.48 -3.82,32.49 z"
   id="path7" />
<path
   class="st0"
   d="m 778.3653,468.69 -4.95,-5.38 c -2.17,-2.35 -5.2,-3.67 -8.37,-3.64 l -13.13,0.15 -15.08,-12.83 c -5.54,-4.71 -13.71,-4.1 -18.55,1.36 -11.85,13.39 -27.36,29.67 -36.07,38.71 -3.68,3.82 -3.62,9.96 0.13,13.71 l 19.92,19.92 -3.48,9.39 c -0.95,2.55 -0.36,5.44 1.5,7.4 l 5.24,5.53 c 2.41,2.54 6.26,2.87 9.04,0.76 8.21,-6.25 26.64,-17.87 50.02,-17.72 -4.71,-10.31 6.68,-28.54 14.74,-39.48 3.98,-5.41 3.58,-12.95 -0.96,-17.88 z"
   id="path8" />
<path
   class="st0"
   d="m 967.0053,487.04 c 2.17,9.82 4,17.41 4,17.41 0,0 10.35,-13.01 15.96,-36.04 1.63,-6.67 -2.84,-13.29 -9.5,-14.28 -24.55,-3.64 -86.89,-10.55 -182.82,-5.48 -3.13,0.17 -4.48,4.14 -2.12,6.24 l 3.06,2.73 c 3.07,2.74 7,4.23 11.07,4.19 21.4,-0.2 92.15,-0.73 131.58,0.74 13.91,0.53 25.71,10.61 28.77,24.49 z"
   id="path9" />
<path
   class="st0"
   d="m 1169.8153,481.21 -26.73,20.56 h -13.67 c -6.11,0 -11.06,5.06 -11.06,11.31 v 17.27 l -21.91,31.46 32.52,-5.45 c 1.95,-0.33 3.95,0.18 5.52,1.4 l 10.81,8.38 c 12.84,9.96 31.25,6.26 39.54,-7.88 2.68,-4.57 5.31,-9.27 7.59,-13.67 3.37,-6.52 8.87,-11.6 15.58,-14.3 14.02,-5.63 32.76,-7.96 32.76,-7.96 l -59.9,-28.79 z"
   id="path10" />
<path
   class="st0"
   d="m 1490.8153,703.87 -11.45,-19.08 -1.8,-22.43 c -0.49,-6.07 -4.38,-11.3 -9.98,-13.38 -18.52,-6.88 -59.41,-23 -68.82,-34.52 0,0 -6.63,23.03 19.3,63.33 l -6.14,23.34 c -2.2,8.35 0.33,17.26 6.59,23.07 6.87,6.37 17.36,13.55 31.44,16.1 l 17.35,30.02 c 0,0 -1.14,-24.25 21.4,-47.83 4.79,-4.99 5.69,-12.66 2.11,-18.62 z"
   id="path11" />
<path
   class="st0"
   d="m 1147.9453,317.15 6.39,10.25 16.48,3.7 v -36.55 c 0,-5.38 -3.43,-10.13 -8.46,-11.71 -42.76,-13.43 -236.74,-76.95 -330.85,-152.43 0,0 -140.07,109.38 -313.58,146.97 -5.32,1.15 -9.1,5.99 -9.1,11.55 v 46.56 l 16.88,-4.39 0.67,-4.75 c 1.22,-8.6 7.17,-15.7 15.31,-18.22 46.04,-14.26 201.21,-64.42 300.28,-121.8 0,0 177.13,94.61 298.73,125.51 2.99,0.77 5.59,2.66 7.25,5.31 z"
   id="path12" />
<path
   class="st0"
   d="m 1302.7753,344.27 h 86.46 c 34.44,0 59.9,34.49 48.65,67.78 -1.8,5.32 -4.41,10.2 -8.13,14.22 0.04,0.93 0.06,1.91 0.04,2.86 l -0.49,30.91 72.97,40.91 7.09,-104.84 c 3.76,-55.5 -36.3,-104.12 -90.43,-109.44 -34.9,-3.45 -78.59,-5.97 -129.94,-5.47 0,0 0.45,19.66 3.01,39.42 1.18,9.04 5.06,17.22 10.77,23.65 z"
   id="path13" />
<path
   class="st0"
   d="m 170.6653,500.96 72.97,-40.91 -0.49,-30.91 c -0.02,-0.95 0,-1.93 0.04,-2.86 -3.71,-4.02 -6.32,-8.9 -8.13,-14.22 -11.25,-33.3 14.22,-67.78 48.65,-67.78 h 86.46 c 5.71,-6.42 9.59,-14.61 10.76,-23.64 2.57,-19.75 3.01,-39.42 3.01,-39.42 -51.35,-0.5 -95.03,2.02 -129.94,5.47 -54.13,5.32 -94.19,53.94 -90.43,109.44 z"
   id="path14" />
<path
   class="st0"
   d="m 287.5853,616.1 c 0,0 -34.74,20.78 -82.81,37.23 -2.69,0.92 -4.89,2.91 -6.07,5.55 -3.9,8.78 -13.02,29.44 -17.58,40.91 -1.63,4.1 -2.38,8.5 -2.06,12.91 0.99,13.78 5.61,29.19 21.48,58.84 l 3.92,-10.12 c 2.31,-5.98 6.53,-10.99 12.01,-14.17 9.81,-5.69 26.2,-16.2 37.31,-28.56 5.08,-5.65 6.72,-13.71 4.53,-21.06 l -4.83,-16.27 c -1.86,-6.26 -0.33,-13.05 4.05,-17.81 10.26,-11.17 28.19,-32.57 30.05,-47.45 z"
   id="path15" />
<path
   class="st0"
   d="m 175.6853,1042.57 -71.83,-131.33 c 0,0 -16.400001,31.9 -11.090001,153.8 5.27,121.08 35.150001,239.9 89.920001,347.37 71.87,141.04 149.32,193.16 149.32,193.16 l 7.84,-117.21 c -180.24,-227.82 -164.16,-445.79 -164.16,-445.79 z"
   id="path16" />
<path
   class="st0"
   d="m 860.3253,1921.86 c -5.2,1.71 -10.88,0.59 -15.04,-3 l -5.45,-4.71 c -158.14,-75.12 -221.39,-142.56 -221.39,-142.56 -38.32,5.75 -125.69,2.73 -125.69,2.73 140.69,153 348.48,235.24 348.48,235.24 242.62,-98.15 348.48,-237.97 348.48,-237.97 h -113.6 c -14.29,25.59 -67.46,101.36 -215.79,150.27 z"
   id="path17" />
<path
   class="st0"
   d="m 1496.0553,1049.7 c 7.37,242.5 -158.26,437.3 -158.26,437.3 l 7.5,116.32 c 309.29,-294.39 222.12,-693.17 222.12,-693.17 z"
   id="path18" />
<path
   class="st0"
   d="m 1562.3953,672.47 c 6.81,-14.61 1.12,-32.12 -12.86,-39.68 l -310.61,-167.63 c -2.26,-1.22 -4.57,-2.36 -6.9,-3.45 -5.06,-2.38 -10.25,-4.47 -15.55,-6.23 -18.27,-6.06 -51.37,-17.54 -75.39,-25.94 -16.51,-5.77 -34.63,2.06 -42.07,18.19 l -44.43,96.1 -113.72,245.96 16.89,13.98 158.05,-349.67 c 4.84,-10.72 17.06,-15.67 27.75,-11.2 85.04,35.68 312.11,161.68 383.89,201.81 12.45,6.97 17.46,22.64 11.39,35.79 -73.09,158.53 -198.58,397.85 -198.58,397.85 l 4.22,7.4 c 17.02,-17.82 71.95,-101.1 73.67,-103.71 l 0.04,-0.06 z"
   id="path19" />
<path
   class="st0"
   d="m 1028.5053,401.43 c -169.47,-9.82 -287.97,-8.05 -346.19,-5.94 -23.06,0.84 -41.41,20.06 -41.72,43.67 l -5.26,400.67 17.29,-8.36 3.8,-393.6 c 0.14,-14.13 11.26,-25.56 25.07,-25.75 59.25,-0.83 213.3,-1.93 337.77,6.19 z"
   id="path20" />
<path
   class="st0"
   d="m 420.8653,467.5 c -0.13,0.06 -0.27,0.11 -0.4,0.17 -3.79,1.66 -7.35,3.65 -10.66,5.95 -21.49,14.9 -32.53,42.18 -26.26,69.1 l 95.18,408.66 14.83,-20.95 c -10.18,-44.45 -69,-289.35 -93.12,-389.71 -5.83,-24.24 7.51,-49.03 30.66,-56.93 l 130.53,-44.67 c -0.96,-7.03 -1.25,-14.87 -1.15,-22.66 l -136.26,49.64 c -1.15,0.42 -2.24,0.93 -3.35,1.4 z"
   id="path21" />
<path
   class="st0"
   d="m 302.9953,545.51 -164.71,89.39 c -19.55,10.61 -28.4,34.34 -20.77,55.59 52.19,145.4 201.23,412.95 201.23,412.95 l 9.05,-15.83 -193.78,-394.37 c -9.55,-19.44 -1.91,-43.13 17.09,-52.92 l 155.64,-80.28 z"
   id="path22" />
<path
   class="st0"
   d="m 104.3953,683.55 c 0.27,-12.2 4.29,-30.84 4.29,-30.84 -12.190001,3.29 -18.090001,5.07 -18.090001,5.07 2.41,10.69 13.800001,25.77 13.800001,25.77 z"
   id="path23" />
<path
   class="st0"
   d="m 1249.2753,1640.25 c 0.59,7.04 -2.15,13.93 -7.36,18.57 -2.82,2.51 -6.16,5.2 -9.65,7.44 -3.42,2.19 -7.39,3.34 -11.43,3.34 h -60.2 l -62.98,66.61 h 161.17 c 31.44,0 56.21,-27.42 53.72,-59.49 l -14.71,-189.74 c -19.62,25.81 -38.88,48.54 -55.74,67.25 z"
   id="path24" />
<path
   class="st0"
   d="m 545.2853,1668.91 h -98.9 c -27.35,-20.14 -5.9,-38.79 -5.9,-38.79 v -93.24 c -28.62,-40.2 -38.06,-69.62 -38.06,-69.62 15.41,22.41 30.29,39.49 43.62,52.5 l 1.93,-33.59 c -33.46,-51.66 -65.52,-119.94 -65.52,-119.94 2.35,15.59 3.84,31.28 4.55,47.01 0.82,18.19 0.57,36.42 -0.82,54.62 l -1.16,13.32 -12.4,142.46 -4.26,49.12 2.06,-23.71 c 1.65,-19.05 6.45,-37.69 14.25,-55.07 3.12,-6.95 5.79,-11.97 7.03,-12.03 4.01,-0.22 11.39,2.89 10.72,15.63 -0.68,12.74 -13.2,73.47 0,105.62 0,0 -18.79,-6.12 -31.66,-22.28 -1.8,-2.26 -2.63,-5.17 -2.4,-8.07 -0.12,1.52 -0.19,3.03 -0.21,4.52 -0.23,30.32 23.55,55.7 53.74,56.15 l 178.06,2.71 c -20.91,-20.29 -54.67,-67.32 -54.67,-67.32 z"
   id="path25" />
<path
   class="st0"
   d="m 466.2053,1537.46 v -25.25 0 c -1.5,-1.95 -3.01,-3.96 -4.52,-6.04 -4.54,-6.22 -9.13,-12.96 -13.7,-20.01 l -1.93,33.59 c 7.22,7.05 13.99,12.9 20.15,17.71 z"
   id="path26" />
<path
   class="st0"
   d="m 1209.8253,1624.69 -23.13,-13.76 -14.62,22.36 c 12.24,-0.96 27.9,-3.24 37.75,-8.6 z"
   id="path27" />
<path
   class="st0"
   d="m 1239.0553,1527.58 c 8.08,-8.99 16.87,-18.88 25.82,-29.11 16.89,-19.32 27.22,-43.71 29.26,-69.56 0.95,-11.85 1.91,-22.25 2.59,-29.13 -3.85,6.27 -7.83,12.65 -11.86,19.07 -1.02,1.62 -2.04,3.24 -3.07,4.87 -3.29,5.21 -6.62,10.45 -9.99,15.7 -0.96,1.49 -1.9,2.97 -2.86,4.46 -4.24,6.56 -8.52,13.13 -12.85,19.67 -0.61,0.92 -1.22,1.82 -1.83,2.74 -3.6,5.41 -7.23,10.78 -10.87,16.11 -0.7,1.02 -1.38,2.07 -2.08,3.09 z"
   id="path28" />
<path
   class="st0"
   d="m 1239.0553,1527.58 2.25,-42.09 c -1.64,2.39 -3.29,4.75 -4.93,7.12 -0.42,0.6 -0.83,1.2 -1.25,1.8 -3.05,4.37 -6.1,8.67 -9.15,12.92 -0.83,1.16 -1.66,2.31 -2.49,3.46 -3.12,4.32 -6.24,8.6 -9.34,12.77 -6.75,27.46 -13.79,45.93 -14.09,46.75 0.71,-0.73 17.28,-18.52 39,-42.73 z"
   id="path29" />
<g
   id="g50"
   transform="translate(-0.01470068)">
	<polygon
   class="st1"
   points="671.93,1293.85 604.79,1574.74 841.58,1422.57 1078.1,1574.74 1011.63,1292.07 1230.87,1109.47 944.9,1096.04 841.58,832.42 737.86,1096.86 455.24,1110.84 "
   id="polygon29" />
	<path
   class="st1"
   d="m 488.63,285.81 c 0.39,-9.96 6.9,-18.58 16.22,-21.49 265.43,-82.99 337.66,-141.58 337.66,-141.58 88.19,59.33 294.66,129.17 337.38,143.3 4.73,1.56 8.05,5.91 8.4,10.99 l 4.24,61.22 63.52,32.35 -9.19,-128.98 c -1.09,-15.3 -11.39,-28.27 -25.79,-32.55 C 938.99,125.35 844.13,34.18 844.13,34.18 796.42,112.44 552.34,190.7 466.14,216.31 c -18,5.35 -30.54,21.99 -31.03,41.16 l -2.92,113.12 54.14,-25.22 z"
   id="path30" />
	<path
   class="st1"
   d="m 1389.25,344.27 h -86.46 c 6.66,7.55 15.87,12.7 26.25,14 18.74,2.37 38.4,6.58 55.4,10.85 26.06,6.53 44.51,29.95 45.34,57.15 3.71,-4.02 6.32,-8.9 8.13,-14.22 11.24,-33.29 -14.22,-67.78 -48.66,-67.78 z"
   id="path31" />
	<path
   class="st1"
   d="m 235.07,412.05 c 1.8,5.32 4.41,10.2 8.13,14.22 0.83,-27.2 19.29,-50.62 45.34,-57.15 17,-4.28 36.66,-8.49 55.4,-10.85 10.38,-1.3 19.58,-6.45 26.25,-14 h -86.46 c -34.44,0 -59.9,34.49 -48.66,67.78 z"
   id="path32" />
	<path
   class="st1"
   d="m 860.34,1921.86 c 148.33,-48.9 201.5,-124.67 215.78,-150.26 h -27.9 c -54.68,57.43 -208.38,142.56 -208.38,142.56 l 5.45,4.71 c 4.16,3.57 9.85,4.7 15.05,2.99 z"
   id="path33" />
	<path
   class="st1"
   d="M 1595.17,595.33 1142.68,363.06 c -24.55,-12.61 -54.4,-1.39 -65.12,24.5 -49.59,119.62 -169.66,385.5 -169.66,385.5 l 32.97,16.71 113.72,-245.95 45.05,-115.37 c 6.45,-16.54 25.48,-23.77 40.91,-15.52 l 91.49,48.75 v 0.02 c 2.32,1.09 4.63,2.23 6.9,3.45 l 310.61,167.63 c 13.98,7.55 19.67,25.07 12.86,39.68 l -144.2,309.51 -0.04,0.06 -57.61,123.78 c -11.22,24.11 -28.45,44.78 -49.97,59.93 l -0.25,0.2 c 2.76,28.37 -10.48,109.89 -10.84,112.22 0.85,-1.15 21.45,-29.67 37.34,-89.06 2.25,-8.49 11.86,-12.24 19.12,-7.55 4.14,2.67 8.64,6.66 12.94,12.63 39.85,-45.88 192.32,-360.28 258.98,-499.65 17.55,-36.64 2.96,-80.9 -32.71,-99.2 z"
   id="path34" />
	<path
   class="st1"
   d="m 853.62,710.11 -10.58,-15.26 -16.74,20.99 v 34.38 c 22.53,-9.12 36.05,2.84 36.05,2.84 l -2.57,-26.14 c -0.59,-6.05 -2.72,-11.85 -6.16,-16.81 z"
   id="path35" />
	<path
   class="st1"
   d="m 1046.21,353.93 -387.6,-6.08 c -30.73,-0.48 -56.13,24.39 -57.01,55.81 L 590,864.97 c 0,0 17.73,-10.48 30.6,-17.88 l 9.51,-423.83 c 0.45,-19.96 16.33,-35.93 35.84,-36.03 84.51,-0.44 297.47,-0.92 364.17,4.75 0.01,-0.01 0.81,-19.54 16.09,-38.05 z"
   id="path36" />
	<path
   class="st1"
   d="m 330.49,506.71 120.33,484.04 24.7,-34.84 -102.19,-408.33 c -6.92,-27.67 5.39,-56.61 29.9,-70.28 l 6.59,-3.68 c 3.31,-2.3 6.88,-4.29 10.66,-5.95 l 0.48,-0.27 -0.08,0.1 c 1.11,-0.48 2.2,-0.99 3.35,-1.4 l 136.26,-49.64 c 0.23,-23.14 3.84,-45.88 3.84,-45.88 l -201.42,73.8 c -24.91,9.13 -38.93,36.11 -32.42,62.33 z"
   id="path37" />
	<path
   class="st1"
   d="m 274.39,1135.81 c 4.32,7.81 14.79,25.38 29.29,40.84 30.55,27.55 61.78,92.4 61.78,92.4 0,0 -5.36,-71.83 0,-107.2 0,0 -20.1,-10.97 -39.4,-32.35 v 16.24 c 0,4.25 -5,6.4 -7.97,3.44 l -18.23,-18.17 -2.41,-17.48 L 96.37,702.33 72.18,658.32 c -4.19,-7.62 2.01,-16.81 10.47,-15.55 6.29,0.94 13.53,1.73 21.1,2.01 3.53,0.13 7.04,-0.77 10.1,-2.56 l 185.4,-108.51 c 0,0 -4.42,-18.78 -4.42,-41.4 l -234.47,125 c -23.14,12.34 -32.64,41.15 -21.53,65.3 38.81,84.37 130.17,276.86 229.33,442.38 2.14,3.57 4.21,7.17 6.23,10.82 z"
   id="path38" />
	<path
   class="st1"
   d="m 638.56,1736.22 h 41.81 c 0,0 -63.25,-30.43 -87.1,-48.25 0,0 22.24,36.19 45.29,48.25 z"
   id="path39" />
	<path
   class="st1"
   d="m 387.03,1413.24 c -8.72,-13.05 -21.62,-33.78 -33.5,-65.92 -18.09,-48.94 -53.07,-92.12 -53.07,-92.12 0,0 8.67,68.6 15.23,106.51 1.86,10.75 5.76,21 11.48,30.21 20.7,33.28 44.22,68.84 57.87,89.25 l 1.16,-13.32 c 1.4,-18.19 1.64,-36.43 0.83,-54.61 z"
   id="path40" />
	<path
   class="st1"
   d="m 402.44,1703.18 c -13.2,-32.15 -0.68,-92.88 0,-105.62 0.68,-12.74 -6.7,-15.84 -10.72,-15.63 -1.23,0.06 -3.9,5.08 -7.03,12.03 -7.8,17.38 -12.6,36.02 -14.25,55.07 l -2.06,23.71 v 0.05 c 0,0.01 0,0.02 0,0.03 -0.23,2.9 0.6,5.81 2.4,8.07 12.87,16.17 31.66,22.29 31.66,22.29 z"
   id="path41" />
	<path
   class="st1"
   d="m 1254.27,1466.3 c 0.61,-0.92 1.23,-1.82 1.83,-2.74 -0.6,0.92 -1.22,1.82 -1.83,2.74 z"
   id="path42" />
	<path
   class="st1"
   d="m 1214.16,1523.57 c 3.11,-4.17 6.22,-8.45 9.34,-12.77 -3.11,4.32 -6.23,8.6 -9.34,12.77 z"
   id="path43" />
	<path
   class="st1"
   d="m 1268.96,1443.9 c 0.96,-1.49 1.91,-2.97 2.86,-4.46 -0.95,1.48 -1.9,2.97 -2.86,4.46 z"
   id="path44" />
	<path
   class="st1"
   d="m 1226,1507.34 c 3.05,-4.26 6.1,-8.56 9.15,-12.92 -3.05,4.36 -6.1,8.66 -9.15,12.92 z"
   id="path45" />
	<path
   class="st1"
   d="m 1281.81,1423.73 c 1.03,-1.63 2.05,-3.25 3.07,-4.87 -1.01,1.62 -2.04,3.25 -3.07,4.87 z"
   id="path46" />
	<path
   class="st1"
   d="m 1243.4,1482.41 c -2.34,3.42 -4.67,6.83 -7.02,10.21 1.65,-2.37 3.29,-4.73 4.93,-7.12 0.71,-1.02 1.4,-2.07 2.09,-3.09 z"
   id="path47" />
	<path
   class="st1"
   d="m 1365.81,1281.38 c 0,0 -29.43,53.98 -69.06,118.4 -0.68,6.88 -1.63,17.28 -2.59,29.13 -2.04,25.85 -12.37,50.25 -29.26,69.56 -8.95,10.22 -17.74,20.12 -25.82,29.11 -21.73,24.2 -38.3,42 -39,42.74 0.3,-0.82 7.34,-19.3 14.09,-46.75 -19.37,26 -38.34,48.79 -55.4,64.88 0,0 -9.23,20.01 -18.48,28.04 l -16.49,1.84 -13.2,23.57 c -5.28,9.4 -12.39,17.58 -20.92,24.01 -39.34,29.61 -110.73,70.3 -110.73,70.3 h 88.16 c 0,0 48.25,-41.8 86.84,-102.25 0,0 7.87,0.13 18.14,-0.67 l 14.62,-22.36 c 0,0 23.31,-21.09 55.4,-56.7 16.86,-18.71 36.12,-41.44 55.74,-67.25 24.13,-31.75 48.76,-68.13 69.97,-107.45 0,0 7.24,-61.27 -2.01,-98.15 z"
   id="path48" />
	<path
   class="st1"
   d="m 402.44,1467.26 c 0,0 9.45,29.42 38.06,69.62 51.84,72.82 166.66,181.02 402.55,213.87 0,0 122.21,-7.68 225.67,-91.57 0,0 -82.28,44.96 -224.73,70.74 0,0 -131.19,-6.03 -251.8,-84.99 l -20.64,-1.37 -25.46,-18.37 -5.63,-23.3 -39.13,-43.32 c 0,0 -13.92,-4.51 -35.12,-21.09 -6.16,-4.82 -12.93,-10.66 -20.16,-17.71 -13.32,-13.02 -28.19,-30.1 -43.61,-52.51 z"
   id="path49" />
	<path
   class="st1"
   d="m 741.2,892.97 13.32,-33.81 c 0,0 -181.7,59.26 -248.13,183.41 l 33.47,-2.9 c 17.25,-30.06 69.85,-95.98 201.34,-146.7 z"
   id="path50" />
</g>
<path
   class="st2"
   d="m 420.9453,467.4 -0.48,0.27 c 0.13,-0.06 0.27,-0.11 0.4,-0.17 z"
   id="path51" />
<path
   class="st2"
   d="m 1141.0953,429.55 c 24.02,8.4 57.12,19.88 75.39,25.94 5.31,1.75 10.49,3.85 15.55,6.23 v -0.02 l -91.49,-48.75 c -15.43,-8.25 -34.46,-1.02 -40.91,15.52 l -45.05,115.37 44.43,-96.1 c 7.45,-16.13 25.57,-23.96 42.08,-18.19 z"
   id="path52" />
<path
   class="st2"
   d="m 1610.7653,564.91 -82.14,-42.18 c 4.44,-5.46 7.34,-12.3 7.68,-19.47 l 7.17,-104.85 c 4.95,-74.46 -48.16,-138.5 -121.25,-145.67 -38.08,-3.76 -78.73,-5.81 -120.22,-5.81 l -13.32,0.17 c -2.39,0 -4.78,0.34 -7,0.85 l -0.68,-8.71 c -2.22,-29.37 -22.37,-54.65 -50.21,-62.85 C 962.6853,96.83 868.5853,10.25 867.7353,9.56 861.4153,3.41 852.8753,0 844.1653,0 c -1.54,0 -2.9,0.17 -4.44,0.34 -10.25,1.37 -19.47,7.17 -24.76,16.05 -27.5,44.91 -168.21,110.66 -358.62,167.19 -29.2,8.71 -50.21,33.64 -54.65,63.7 -0.68,-0.17 -1.54,-0.17 -2.22,-0.17 -0.51,0 -153.69,6.32 -153.69,6.32 -32.62,1.37 -62.84,15.54 -84.87,40.13 -22.54,25.27 -33.81,57.89 -31.42,91.88 l 8.37,123.98 c 0.68,8.54 4.27,16.39 10.42,22.2 l -104.000001,55.5 c -39.1099997,21 -55.16,69.16 -36.5499997,109.81 17.4199997,37.57 48.4999997,104 87.4399997,181.36 -9.22,2.39 -17.25,8.71 -21.69,17.42 -4.78,9.22 -20.15,49.35 -14.86,170.77 5.64,127.23 37.91,252.06 93.580001,361.53 75.14,147.21 157.28,203.56 160.7,205.95 5.81,3.76 12.47,5.81 19.13,5.81 1.71,0 3.42,-0.17 4.95,-0.34 l -0.34,5.81 c -0.17,0.34 -0.17,0.51 -0.17,0.85 0,0 -0.17,1.37 -0.34,3.59 -0.51,5.64 -1.37,15.88 -1.71,19.13 0,0.68 -0.17,1.2 -0.17,1.2 -0.17,1.54 -0.17,3.24 0,4.78 -0.17,0.85 -0.17,1.54 -0.17,2.39 -0.51,49.18 38.77,89.83 87.26,90.51 l 37.91,0.51 c -2.05,10.42 0.85,21.18 8.37,29.2 144.3,156.94 352.3,240.45 361.01,244.03 4.1,1.54 8.37,2.39 12.64,2.39 4.27,0 8.71,-0.85 12.81,-2.56 248.47,-100.58 358.28,-243.01 362.89,-248.99 4.78,-6.49 7.17,-14.17 6.83,-21.86 h 35.01 c 24.25,0 47.65,-10.25 64.21,-28.18 16.91,-18.27 25.44,-43.2 23.57,-68.14 l -2.9,-36.72 c 0.51,0.17 1.2,0.17 1.71,0.17 8.54,0 17.08,-3.24 23.4,-9.56 319.68,-304.15 235.67,-708.02 232.08,-725.1 -2.73,-12.3 -11.95,-21.86 -23.57,-25.44 27.67,-56.36 55.5,-114.08 81.46,-168.21 25.25,-52.95 3.73,-117.68 -48.01,-144.32 z m -191.82,-278.22 c 54.13,5.32 94.19,53.94 90.43,109.44 l -7.09,104.84 -72.97,-40.91 0.49,-30.91 c 0.02,-0.95 0,-1.93 -0.04,-2.86 -0.83,-27.2 -19.29,-50.62 -45.34,-57.15 -17,-4.28 -36.66,-8.49 -55.4,-10.85 -10.38,-1.3 -19.58,-6.45 -26.25,-14 -5.71,-6.42 -9.59,-14.61 -10.76,-23.64 -2.57,-19.75 -3.01,-39.42 -3.01,-39.42 51.35,-0.51 95.03,2.01 129.94,5.46 z m -983.85,-29.22 c 0.49,-19.17 13.03,-35.81 31.03,-41.16 86.2,-25.6 330.28,-103.87 377.99,-182.13 0,0 94.86,91.17 376.95,174.88 14.4,4.27 24.7,17.25 25.79,32.55 l 9.19,128.98 -63.52,-32.35 -4.24,-61.22 c -0.35,-5.08 -3.67,-9.42 -8.4,-10.99 -42.72,-14.12 -249.19,-83.97 -337.38,-143.3 0,0 -72.23,58.58 -337.66,141.58 -9.32,2.91 -15.84,11.53 -16.22,21.49 l -2.3,59.56 -54.14,25.22 z m 772.91,272.83 c -6.71,2.7 -12.22,7.77 -15.58,14.3 -2.27,4.41 -4.91,9.11 -7.59,13.67 -8.28,14.14 -26.7,17.84 -39.54,7.88 l -10.81,-8.38 c -1.58,-1.22 -3.57,-1.73 -5.52,-1.4 l -32.52,5.45 21.91,-31.46 v -17.27 c 0,-6.25 4.95,-11.31 11.06,-11.31 h 13.67 l 26.73,-20.56 11.06,12.34 59.9,28.79 c -0.01,-0.01 -18.75,2.32 -32.77,7.95 z m 57.49,184 c 46.92,26.79 62.52,89.63 34.84,140.36 -27.68,50.73 -88.15,70.14 -135.07,43.35 -46.92,-26.79 -62.52,-89.63 -34.84,-140.36 27.67,-50.72 88.15,-70.13 135.07,-43.35 z m -80.2,335.4 -86.03,-17.1 c -58.43,-64.53 -129.65,-92.02 -129.65,-92.02 l -36.78,-78.96 c 181.97,79.24 252.46,188.08 252.46,188.08 z m -240.41,46.34 285.97,13.43 -219.23,182.6 66.47,282.67 -236.52,-152.16 -236.79,152.16 67.14,-280.89 -216.69,-183.01 282.62,-13.98 103.72,-264.44 z m 142.85,304.32 c 0,-26.32 -19.03,-96.23 -19.03,-96.23 l 28.68,-22.76 -7.24,22.76 c 6.7,65.53 -2.41,96.23 -2.41,96.23 z m -154.11,150.52 c -61.11,8.5 -90.59,45.79 -90.59,45.79 -4.02,-21.66 -88.71,-47.16 -88.71,-47.16 80.94,1.37 88.71,-58.12 88.71,-58.12 0,0 9.98,37.89 32.79,47.58 2.94,1.25 6.13,1.74 9.31,1.86 31.29,1.13 48.49,10.05 48.49,10.05 z m -348.95,-107.13 c 0,0 -17.69,-40.51 11.66,-151.55 l 18.09,13.16 z m -151.37,-890.01 c -1.81,-1.47 -2.2,-4.13 -0.9,-6.08 l 27.92,-42.02 c 0.83,-1.25 2.22,-1.96 3.69,-1.89 5.89,0.29 21.64,0.94 33.03,0.29 18.89,-11.52 46.03,-21.59 46.03,-21.59 -54.07,38.66 -30.96,87.39 -30.96,87.39 -47.84,11.31 -59.1,35.57 -59.1,35.57 -12.26,-15.01 3.82,-32.49 3.82,-32.49 z m 321.2,305.41 -13.32,33.81 -13.32,33.3 c -93.41,50.72 -136.28,108.95 -136.28,108.95 l -51.74,4.44 -33.47,2.9 c 66.43,-124.14 248.13,-183.4 248.13,-183.4 z m 10.07,-333.11 c -23.38,-0.15 -41.8,11.47 -50.02,17.72 -2.77,2.11 -6.63,1.78 -9.04,-0.76 l -5.24,-5.53 c -1.86,-1.96 -2.44,-4.84 -1.5,-7.4 l 3.48,-9.39 -19.92,-19.92 c -3.75,-3.75 -3.81,-9.89 -0.13,-13.71 8.71,-9.04 24.22,-25.32 36.07,-38.71 4.84,-5.47 13.01,-6.08 18.55,-1.36 l 15.08,12.83 13.13,-0.15 c 3.16,-0.04 6.2,1.28 8.37,3.64 l 4.95,5.38 c 4.54,4.92 4.94,12.46 0.96,17.87 -8.05,10.95 -19.44,29.18 -14.74,39.49 z m 97.76,227.02 c 0,0 -13.52,-11.96 -36.05,-2.84 -8.55,3.45 -18.44,9.96 -29.34,21.34 0,0 1.87,-47.01 -11.8,-66.76 0,0 44.49,-37.55 54.68,-52.35 l 24.38,23.29 19.03,34.55 z m -55.68,-291.24 c -4.07,0.04 -8,-1.45 -11.07,-4.19 l -3.06,-2.73 c -2.36,-2.11 -1,-6.08 2.12,-6.24 95.93,-5.07 158.26,1.84 182.82,5.48 6.65,0.99 11.12,7.61 9.5,14.28 -5.61,23.03 -15.96,36.04 -15.96,36.04 0,0 -1.84,-7.58 -4,-17.41 -3.07,-13.89 -14.87,-23.96 -28.78,-24.48 -39.41,-1.48 -110.17,-0.95 -131.57,-0.75 z m -125.17,-49.71 c -13.81,0.19 -24.93,11.63 -25.07,25.75 l -3.8,393.6 -17.29,8.36 5.26,-400.67 c 0.31,-23.6 18.66,-42.83 41.72,-43.67 58.22,-2.12 176.73,-3.88 346.19,5.94 l -9.25,16.86 c -124.46,-8.11 -278.5,-7 -337.76,-6.17 z m -15.54,-24.88 c -19.52,0.1 -35.4,16.07 -35.84,36.03 l -9.51,423.83 c -12.86,7.4 -30.6,17.88 -30.6,17.88 l 11.6,-461.31 c 0.88,-31.42 26.28,-56.29 57.01,-55.81 l 387.6,6.08 c -15.28,18.51 -16.08,38.04 -16.08,38.04 -66.71,-5.67 -279.67,-5.18 -364.18,-4.74 z m 176.02,-200.89 c -99.06,57.38 -254.24,107.53 -300.28,121.8 -8.13,2.52 -14.09,9.62 -15.31,18.22 l -0.67,4.75 -16.88,4.39 v -46.56 c 0,-5.56 3.79,-10.4 9.1,-11.55 173.51,-37.59 313.58,-146.97 313.58,-146.97 94.11,75.48 288.09,139 330.85,152.43 5.03,1.58 8.46,6.33 8.46,11.71 v 36.55 l -16.48,-3.7 -6.39,-10.25 c -1.66,-2.66 -4.25,-4.54 -7.24,-5.3 -121.61,-30.91 -298.74,-125.52 -298.74,-125.52 z m -277.65,184.24 c 0,0 -3.61,22.75 -3.84,45.88 -0.11,7.79 0.19,15.63 1.15,22.66 l -130.53,44.67 c -23.15,7.9 -36.49,32.69 -30.66,56.93 24.12,100.36 82.94,345.26 93.12,389.71 l -14.83,20.95 -95.18,-408.66 c -6.27,-26.92 4.78,-54.2 26.26,-69.1 l -6.59,3.68 c -24.51,13.67 -36.81,42.61 -29.9,70.28 l 102.18,408.34 -24.7,34.84 -120.32,-484.05 c -6.51,-26.22 7.51,-53.2 32.42,-62.34 z m -310.31,-83.89 c 34.9,-3.45 78.59,-5.97 129.94,-5.47 0,0 -0.45,19.66 -3.01,39.42 -1.17,9.03 -5.05,17.21 -10.76,23.64 -6.66,7.55 -15.87,12.7 -26.25,14 -18.74,2.37 -38.4,6.58 -55.4,10.85 -26.06,6.53 -44.51,29.95 -45.34,57.15 -0.04,0.93 -0.06,1.91 -0.04,2.86 l 0.49,30.91 -72.97,40.91 -7.09,-104.84 c -3.76,-55.5 36.3,-104.12 90.43,-109.43 z m -0.53,394.68 4.83,16.27 c 2.18,7.35 0.55,15.41 -4.53,21.06 -11.11,12.36 -27.5,22.87 -37.31,28.56 -5.47,3.17 -9.69,8.18 -12.01,14.17 l -3.92,10.12 c -15.87,-29.65 -20.49,-45.06 -21.48,-58.84 -0.32,-4.41 0.43,-8.82 2.06,-12.91 4.56,-11.48 13.68,-32.13 17.58,-40.91 1.17,-2.64 3.38,-4.63 6.07,-5.55 48.08,-16.46 82.81,-37.23 82.81,-37.23 -1.85,14.88 -19.79,36.27 -30.06,47.45 -4.37,4.76 -5.9,11.56 -4.04,17.81 z m -102.37,-41.05 c -18.99,9.8 -26.64,33.48 -17.09,52.92 l 193.77,394.36 -9.05,15.83 c 0,0 -149.04,-267.55 -201.23,-412.95 -7.63,-21.25 1.23,-44.99 20.77,-55.59 l 164.71,-89.39 3.75,14.53 z m -112.290001,42.3 c -11.11,-24.16 -1.61,-52.96 21.53,-65.3 l 234.470001,-125 c 0,22.62 4.42,41.4 4.42,41.4 l -185.4,108.51 c -3.07,1.8 -6.57,2.69 -10.1,2.56 -7.560001,-0.27 -14.800001,-1.07 -21.100001,-2.01 -8.46,-1.26 -14.66,7.92 -10.47,15.55 l 24.19,44.01 201.080001,411.18 2.41,17.48 18.23,18.17 c 2.97,2.96 7.97,0.81 7.97,-3.44 v -16.24 c 19.3,21.39 39.4,32.35 39.4,32.35 -5.36,35.37 0,107.2 0,107.2 0,0 -31.22,-64.84 -61.78,-92.4 -14.5,-15.46 -24.97,-33.02 -29.29,-40.84 -2.02,-3.64 -4.08,-7.25 -6.22,-10.82 C 168.9853,959.47 77.625299,766.98 38.815299,682.62 Z M 108.6853,652.71 c 0,0 -4.02,18.64 -4.29,30.84 0,0 -11.390001,-15.08 -13.800001,-25.77 0,0 5.89,-1.78 18.090001,-5.07 z m 223.32,952.87 c 0,0 -77.45,-52.12 -149.32,-193.16 -54.77,-107.47 -84.650001,-226.3 -89.920001,-347.37 -5.3,-121.89 11.090001,-153.8 11.090001,-153.8 l 71.83,131.33 c 0,0 -16.08,217.96 164.16,445.8 z m 89.9,127.92 c -30.19,-0.46 -53.98,-25.83 -53.74,-56.15 0.02,-1.49 0.09,-3.01 0.21,-4.52 0,-0.01 0,-0.02 0,-0.03 v -0.05 l 4.26,-49.12 12.4,-142.46 c -13.65,-20.4 -37.18,-55.97 -57.87,-89.25 -5.73,-9.21 -9.62,-19.46 -11.48,-30.21 -6.56,-37.91 -15.23,-106.51 -15.23,-106.51 0,0 34.98,43.18 53.07,92.12 11.88,32.14 24.77,52.88 33.5,65.92 -0.71,-15.73 -2.2,-31.42 -4.55,-47.01 0,0 32.06,68.28 65.52,119.94 4.57,7.05 9.16,13.79 13.7,20.01 1.51,2.07 3.02,4.09 4.52,6.04 v 0 25.25 c 21.2,16.59 35.12,21.09 35.12,21.09 l 39.13,43.32 5.63,23.3 25.46,18.37 20.64,1.37 c 120.61,78.96 251.8,84.99 251.8,84.99 142.45,-25.77 224.73,-70.74 224.73,-70.74 -103.45,83.9 -225.67,91.57 -225.67,91.57 -235.89,-32.86 -350.7,-141.06 -402.55,-213.87 v 93.24 c 0,0 -21.45,18.64 5.9,38.79 h 98.9 c 0,0 33.76,47.03 54.68,67.31 z m 258.45,2.72 h -41.81 c -23.05,-12.06 -45.29,-48.25 -45.29,-48.25 23.85,17.82 87.1,48.25 87.1,48.25 z m 160.87,273.35 c 0,0 -207.78,-82.24 -348.48,-235.24 0,0 87.37,3.02 125.69,-2.73 0,0 63.25,67.44 221.39,142.56 0,0 153.7,-85.13 208.38,-142.56 h 27.9 113.6 c 0,-0.01 -105.85,139.82 -348.48,237.97 z m 456.61,-522.58 14.71,189.74 c 2.49,32.06 -22.28,59.49 -53.72,59.49 h -161.17 l 62.98,-66.61 h 60.2 c 4.04,0 8.01,-1.15 11.43,-3.34 3.49,-2.24 6.83,-4.93 9.65,-7.44 5.21,-4.64 7.95,-11.53 7.36,-18.57 l -7.19,-86.02 c -32.09,35.61 -55.4,56.7 -55.4,56.7 l 23.13,13.76 c -9.85,5.36 -25.5,7.64 -37.75,8.6 -10.27,0.8 -18.14,0.67 -18.14,0.67 -38.6,60.45 -86.84,102.25 -86.84,102.25 h -88.16 c 0,0 71.4,-40.7 110.73,-70.3 8.53,-6.42 15.64,-14.61 20.92,-24.01 l 13.2,-23.57 16.49,-1.84 c 9.25,-8.03 18.48,-28.04 18.48,-28.04 17.06,-16.08 36.03,-38.87 55.4,-64.88 3.11,-4.17 6.22,-8.45 9.34,-12.77 0.83,-1.15 1.66,-2.3 2.49,-3.46 3.05,-4.26 6.1,-8.56 9.15,-12.92 0.42,-0.6 0.83,-1.2 1.25,-1.8 2.34,-3.37 4.68,-6.79 7.02,-10.21 3.64,-5.33 7.27,-10.7 10.87,-16.11 0.61,-0.92 1.23,-1.82 1.83,-2.74 4.33,-6.53 8.62,-13.1 12.85,-19.67 0.96,-1.49 1.91,-2.98 2.86,-4.46 3.37,-5.25 6.71,-10.49 9.99,-15.7 1.02,-1.63 2.05,-3.25 3.07,-4.87 4.03,-6.42 8,-12.81 11.86,-19.07 39.63,-64.42 69.06,-118.4 69.06,-118.4 9.25,36.88 2.02,98.15 2.02,98.15 -21.22,39.31 -45.84,75.69 -69.97,107.44 z m 47.46,116.33 -7.5,-116.32 c 0,0 165.63,-194.8 158.26,-437.3 l 71.36,-139.55 c -0.01,0 87.17,398.78 -222.12,693.17 z m 282.58,-908.77 c -66.67,139.37 -219.14,453.77 -258.98,499.65 -4.31,-5.97 -8.81,-9.96 -12.94,-12.63 -7.26,-4.69 -16.87,-0.93 -19.12,7.55 -15.89,59.38 -36.49,87.91 -37.34,89.06 0.36,-2.32 13.6,-83.85 10.84,-112.22 l 0.25,-0.2 c 21.51,-15.15 38.74,-35.81 49.97,-59.93 l 57.61,-123.78 c -1.72,2.6 -56.65,85.89 -73.67,103.71 l -4.22,-7.4 c 0,0 125.48,-239.32 198.58,-397.85 6.07,-13.15 1.06,-28.82 -11.39,-35.79 -71.78,-40.13 -298.85,-166.13 -383.89,-201.81 -10.69,-4.47 -22.92,0.48 -27.75,11.2 l -158.07,349.65 -16.89,-13.98 -32.97,-16.71 c 0,0 120.07,-265.89 169.66,-385.5 10.71,-25.89 40.57,-37.12 65.12,-24.5 l 452.49,232.27 c 35.66,18.29 50.25,62.55 32.71,99.21 z m -160.57,75.77 -17.35,-30.02 c -14.08,-2.54 -24.57,-9.73 -31.44,-16.1 -6.26,-5.81 -8.79,-14.72 -6.59,-23.07 l 6.14,-23.34 c -25.93,-40.3 -19.3,-63.33 -19.3,-63.33 9.41,11.52 50.31,27.64 68.82,34.52 5.6,2.08 9.49,7.31 9.98,13.38 l 1.8,22.43 11.45,19.08 c 3.58,5.96 2.67,13.63 -2.11,18.63 -22.54,23.57 -21.4,47.82 -21.4,47.82 z"
   id="path53" />
</svg>
